<svg id="SvgjsSvg1006" width="918" height="1011" xmlns="http://www.w3.org/2000/svg" version="1.1" xmlns:xlink="http://www.w3.org/1999/xlink" xmlns:svgjs="http://svgjs.com/svgjs"><defs id="SvgjsDefs1007"><marker id="SvgjsMarker1039" markerWidth="16" markerHeight="16" refX="11" refY="8" viewBox="0 0 16 16" orient="auto" markerUnits="userSpaceOnUse" stroke-dasharray="0,0"><path id="SvgjsPath1040" d="M0,0 L10,8 L0,16" fill="none" stroke="#323232" stroke-width="2"></path></marker><marker id="SvgjsMarker1073" markerWidth="16" markerHeight="16" refX="11" refY="8" viewBox="0 0 16 16" orient="auto" markerUnits="userSpaceOnUse" stroke-dasharray="0,0"><path id="SvgjsPath1074" d="M0,0 L10,8 L0,16" fill="none" stroke="#323232" stroke-width="2"></path></marker><marker id="SvgjsMarker1115" markerWidth="14" markerHeight="12" refX="16" refY="6" viewBox="0 0 14 12" orient="auto" markerUnits="userSpaceOnUse" stroke-dasharray="0,0"><path id="SvgjsPath1116" d="M1,1 L14,6 L1,11L1,1" fill="#ffffff" stroke="#323232" stroke-width="2"></path></marker><marker id="SvgjsMarker1149" markerWidth="20" markerHeight="12" refX="20" refY="6" viewBox="0 0 20 12" orient="auto" markerUnits="userSpaceOnUse" stroke-dasharray="0,0"><path id="SvgjsPath1150" d="M2,6 L10,2 L18,6 L10,10L2,6" fill="#323232" stroke="#323232" stroke-width="2"></path></marker><marker id="SvgjsMarker1153" markerWidth="16" markerHeight="16" refX="11" refY="8" viewBox="0 0 16 16" orient="auto" markerUnits="userSpaceOnUse" stroke-dasharray="0,0"><path id="SvgjsPath1154" d="M0,0 L10,8 L0,16" fill="none" stroke="#323232" stroke-width="2"></path></marker><marker id="SvgjsMarker1243" markerWidth="14" markerHeight="12" refX="16" refY="6" viewBox="0 0 14 12" orient="auto" markerUnits="userSpaceOnUse" stroke-dasharray="0,0"><path id="SvgjsPath1244" d="M1,1 L14,6 L1,11L1,1" fill="#ffffff" stroke="#323232" stroke-width="2"></path></marker><marker id="SvgjsMarker1247" markerWidth="14" markerHeight="12" refX="16" refY="6" viewBox="0 0 14 12" orient="auto" markerUnits="userSpaceOnUse" stroke-dasharray="0,0"><path id="SvgjsPath1248" d="M1,1 L14,6 L1,11L1,1" fill="#ffffff" stroke="#323232" stroke-width="2"></path></marker><marker id="SvgjsMarker1251" markerWidth="14" markerHeight="12" refX="16" refY="6" viewBox="0 0 14 12" orient="auto" markerUnits="userSpaceOnUse" stroke-dasharray="0,0"><path id="SvgjsPath1252" d="M1,1 L14,6 L1,11L1,1" fill="#ffffff" stroke="#323232" stroke-width="2"></path></marker><marker id="SvgjsMarker1269" markerWidth="14" markerHeight="12" refX="16" refY="6" viewBox="0 0 14 12" orient="auto" markerUnits="userSpaceOnUse" stroke-dasharray="0,0"><path id="SvgjsPath1270" d="M1,1 L14,6 L1,11L1,1" fill="#ffffff" stroke="#323232" stroke-width="2"></path></marker><marker id="SvgjsMarker1301" markerWidth="16" markerHeight="16" refX="11" refY="8" viewBox="0 0 16 16" orient="auto" markerUnits="userSpaceOnUse" stroke-dasharray="0,0"><path id="SvgjsPath1302" d="M0,0 L10,8 L0,16" fill="none" stroke="#323232" stroke-width="2"></path></marker><marker id="SvgjsMarker1305" markerWidth="20" markerHeight="12" refX="20" refY="6" viewBox="0 0 20 12" orient="auto" markerUnits="userSpaceOnUse" stroke-dasharray="0,0"><path id="SvgjsPath1306" d="M2,6 L10,2 L18,6 L10,10L2,6" fill="#ffffff" stroke="#323232" stroke-width="2"></path></marker><marker id="SvgjsMarker1375" markerWidth="16" markerHeight="16" refX="11" refY="8" viewBox="0 0 16 16" orient="auto" markerUnits="userSpaceOnUse" stroke-dasharray="0,0"><path id="SvgjsPath1376" d="M0,0 L10,8 L0,16" fill="none" stroke="#323232" stroke-width="2"></path></marker><marker id="SvgjsMarker1393" markerWidth="14" markerHeight="12" refX="16" refY="6" viewBox="0 0 14 12" orient="auto" markerUnits="userSpaceOnUse" stroke-dasharray="0,0"><path id="SvgjsPath1394" d="M1,1 L14,6 L1,11L1,1" fill="#ffffff" stroke="#323232" stroke-width="2"></path></marker><marker id="SvgjsMarker1397" markerWidth="14" markerHeight="12" refX="16" refY="6" viewBox="0 0 14 12" orient="auto" markerUnits="userSpaceOnUse" stroke-dasharray="0,0"><path id="SvgjsPath1398" d="M1,1 L14,6 L1,11L1,1" fill="#ffffff" stroke="#323232" stroke-width="2"></path></marker></defs><rect id="SvgjsRect1008" width="918" height="1011" fill="#ffffff"></rect><g id="SvgjsG1009" transform="translate(388,25)"><path id="SvgjsPath1010" d="M 0 4Q 0 0 4 0L 198 0Q 202 0 202 4L 202 144Q 202 148 198 148L 4 148Q 0 148 0 144Z" stroke="rgba(50,50,50,1)" stroke-width="2" fill-opacity="1" fill="#ffffff"></path><path id="SvgjsPath1011" d="M 0 30L 202 30M 0 89L 202 89" stroke="rgba(50,50,50,1)" stroke-width="2" fill="none"></path><path id="SvgjsPath1012" d="M 0 0L 202 0L 202 148L 0 148Z" stroke="none" fill="none"></path><g id="SvgjsG1013"><text id="SvgjsText1014" font-family="微软雅黑" text-anchor="middle" font-size="13px" width="182px" fill="#323232" font-weight="700" align="middle" lineHeight="125%" anchor="middle" family="微软雅黑" size="13px" weight="700" font-style="" opacity="1" y="5.375" transform="rotate(0)"><tspan id="SvgjsTspan1015" dy="16" x="101"><tspan id="SvgjsTspan1016" style="text-decoration:;">IEngine</tspan></tspan></text></g><g id="SvgjsG1017"><text id="SvgjsText1018" font-family="微软雅黑" text-anchor="start" font-size="13px" width="182px" fill="#323232" font-weight="400" align="middle" lineHeight="125%" anchor="start" family="微软雅黑" size="13px" weight="400" font-style="" opacity="1" y="49.875" transform="rotate(0)"></text></g><g id="SvgjsG1019"><text id="SvgjsText1020" font-family="微软雅黑" text-anchor="start" font-size="13px" width="182px" fill="#323232" font-weight="400" align="middle" lineHeight="125%" anchor="start" family="微软雅黑" size="13px" weight="400" font-style="" opacity="1" y="108.875" transform="rotate(0)"></text></g></g><g id="SvgjsG1021" transform="translate(110,210)"><path id="SvgjsPath1022" d="M 0 4Q 0 0 4 0L 102 0Q 106 0 106 4L 106 78Q 106 82 102 82L 4 82Q 0 82 0 78Z" stroke="rgba(50,50,50,1)" stroke-width="2" fill-opacity="1" fill="#ffffff"></path><path id="SvgjsPath1023" d="M 0 30L 106 30M 0 56L 106 56" stroke="rgba(50,50,50,1)" stroke-width="2" fill="none"></path><path id="SvgjsPath1024" d="M 0 0L 106 0L 106 82L 0 82Z" stroke="none" fill="none"></path><g id="SvgjsG1025"><text id="SvgjsText1026" font-family="微软雅黑" text-anchor="middle" font-size="13px" width="86px" fill="#323232" font-weight="700" align="middle" lineHeight="125%" anchor="middle" family="微软雅黑" size="13px" weight="700" font-style="" opacity="1" y="5.375" transform="rotate(0)"><tspan id="SvgjsTspan1027" dy="16" x="53"><tspan id="SvgjsTspan1028" style="text-decoration:;">氧气</tspan></tspan></text></g><g id="SvgjsG1029"><text id="SvgjsText1030" font-family="微软雅黑" text-anchor="start" font-size="13px" width="86px" fill="#323232" font-weight="400" align="middle" lineHeight="125%" anchor="start" family="微软雅黑" size="13px" weight="400" font-style="" opacity="1" y="33.375" transform="rotate(0)"><tspan id="SvgjsTspan1031" dy="16" x="10"><tspan id="SvgjsTspan1032" style="text-decoration:;">特性：</tspan></tspan></text></g><g id="SvgjsG1033"><text id="SvgjsText1034" font-family="微软雅黑" text-anchor="start" font-size="13px" width="86px" fill="#323232" font-weight="400" align="middle" lineHeight="125%" anchor="start" family="微软雅黑" size="13px" weight="400" font-style="" opacity="1" y="59.375" transform="rotate(0)"><tspan id="SvgjsTspan1035" dy="16" x="10"><tspan id="SvgjsTspan1036" style="text-decoration:;">操作</tspan></tspan></text></g></g><g id="SvgjsG1037"><path id="SvgjsPath1038" d="M388 99L302 99L302 251L216 251" stroke-dasharray="8,5" stroke="#323232" stroke-width="2" fill="none" marker-end="url(#SvgjsMarker1039)"></path></g><g id="SvgjsG1041" transform="translate(128,61)"><path id="SvgjsPath1042" d="M 0 0L 107 0L 123 16L 123 76L 0 76L 0 0Z" stroke="rgba(50,50,50,1)" stroke-width="2" fill-opacity="1" fill="#ccff99"></path><path id="SvgjsPath1043" d="M 107 0L 107 16L 123 16" stroke="rgba(50,50,50,1)" stroke-width="2" fill-opacity="1" fill="#ccff99"></path><path id="SvgjsPath1044" d="M 0 0L 107 0L 123 16L 123 76L 0 76L 0 0Z" stroke="rgba(50,50,50,1)" stroke-width="2" fill="none"></path><g id="SvgjsG1045"><text id="SvgjsText1046" font-family="微软雅黑" text-anchor="middle" font-size="13px" width="103px" fill="#323232" font-weight="400" align="middle" lineHeight="125%" anchor="middle" family="微软雅黑" size="13px" weight="400" font-style="" opacity="1" y="4.375" transform="rotate(0)"><tspan id="SvgjsTspan1047" dy="16" x="61.5"><tspan id="SvgjsTspan1048" style="text-decoration:;">依赖关系，主要</tspan></tspan><tspan id="SvgjsTspan1049" dy="16" x="61.5"><tspan id="SvgjsTspan1050" style="text-decoration:;">靠局部变量、函</tspan></tspan><tspan id="SvgjsTspan1051" dy="16" x="61.5"><tspan id="SvgjsTspan1052" style="text-decoration:;">数参数或者静态</tspan></tspan><tspan id="SvgjsTspan1053" dy="16" x="61.5"><tspan id="SvgjsTspan1054" style="text-decoration:;">方法调用</tspan></tspan></text></g></g><g id="SvgjsG1055" transform="translate(732,210)"><path id="SvgjsPath1056" d="M 0 4Q 0 0 4 0L 102 0Q 106 0 106 4L 106 78Q 106 82 102 82L 4 82Q 0 82 0 78Z" stroke="rgba(50,50,50,1)" stroke-width="2" fill-opacity="1" fill="#ffffff"></path><path id="SvgjsPath1057" d="M 0 30L 106 30M 0 56L 106 56" stroke="rgba(50,50,50,1)" stroke-width="2" fill="none"></path><path id="SvgjsPath1058" d="M 0 0L 106 0L 106 82L 0 82Z" stroke="none" fill="none"></path><g id="SvgjsG1059"><text id="SvgjsText1060" font-family="微软雅黑" text-anchor="middle" font-size="13px" width="86px" fill="#323232" font-weight="700" align="middle" lineHeight="125%" anchor="middle" family="微软雅黑" size="13px" weight="700" font-style="" opacity="1" y="5.375" transform="rotate(0)"><tspan id="SvgjsTspan1061" dy="16" x="53"><tspan id="SvgjsTspan1062" style="text-decoration:;">水</tspan></tspan></text></g><g id="SvgjsG1063"><text id="SvgjsText1064" font-family="微软雅黑" text-anchor="start" font-size="13px" width="86px" fill="#323232" font-weight="400" align="middle" lineHeight="125%" anchor="start" family="微软雅黑" size="13px" weight="400" font-style="" opacity="1" y="33.375" transform="rotate(0)"><tspan id="SvgjsTspan1065" dy="16" x="10"><tspan id="SvgjsTspan1066" style="text-decoration:;">特性：</tspan></tspan></text></g><g id="SvgjsG1067"><text id="SvgjsText1068" font-family="微软雅黑" text-anchor="start" font-size="13px" width="86px" fill="#323232" font-weight="400" align="middle" lineHeight="125%" anchor="start" family="微软雅黑" size="13px" weight="400" font-style="" opacity="1" y="59.375" transform="rotate(0)"><tspan id="SvgjsTspan1069" dy="16" x="10"><tspan id="SvgjsTspan1070" style="text-decoration:;">操作</tspan></tspan></text></g></g><g id="SvgjsG1071"><path id="SvgjsPath1072" d="M590 99L661 99L661 251L732 251" stroke-dasharray="8,5" stroke="#323232" stroke-width="2" fill="none" marker-end="url(#SvgjsMarker1073)"></path></g><g id="SvgjsG1075" transform="translate(770,91)"><path id="SvgjsPath1076" d="M 0 0L 107 0L 123 16L 123 76L 0 76L 0 0Z" stroke="rgba(50,50,50,1)" stroke-width="2" fill-opacity="1" fill="#ccff99"></path><path id="SvgjsPath1077" d="M 107 0L 107 16L 123 16" stroke="rgba(50,50,50,1)" stroke-width="2" fill-opacity="1" fill="#ccff99"></path><path id="SvgjsPath1078" d="M 0 0L 107 0L 123 16L 123 76L 0 76L 0 0Z" stroke="rgba(50,50,50,1)" stroke-width="2" fill="none"></path><g id="SvgjsG1079"><text id="SvgjsText1080" font-family="微软雅黑" text-anchor="middle" font-size="13px" width="103px" fill="#323232" font-weight="400" align="middle" lineHeight="125%" anchor="middle" family="微软雅黑" size="13px" weight="400" font-style="" opacity="1" y="20.375" transform="rotate(0)"><tspan id="SvgjsTspan1081" dy="16" x="61.5"><tspan id="SvgjsTspan1082" style="text-decoration:;">依赖关系是虚线</tspan></tspan><tspan id="SvgjsTspan1083" dy="16" x="61.5"><tspan id="SvgjsTspan1084" style="text-decoration:;">连接的箭头形式</tspan></tspan></text></g></g><g id="SvgjsG1085" transform="translate(396.5,255)"><path id="SvgjsPath1086" d="M 0 4Q 0 0 4 0L 181 0Q 185 0 185 4L 185 243Q 185 247 181 247L 4 247Q 0 247 0 243Z" stroke="rgba(50,50,50,1)" stroke-width="2" fill-opacity="1" fill="#ffffff"></path><path id="SvgjsPath1087" d="M 0 30L 185 30M 0 138.5L 185 138.5" stroke="rgba(50,50,50,1)" stroke-width="2" fill="none"></path><path id="SvgjsPath1088" d="M 0 0L 185 0L 185 247L 0 247Z" stroke="none" fill="none"></path><g id="SvgjsG1089"><text id="SvgjsText1090" font-family="微软雅黑" text-anchor="middle" font-size="13px" width="165px" fill="#323232" font-weight="700" align="middle" lineHeight="125%" anchor="middle" family="微软雅黑" size="13px" weight="700" font-style="" opacity="1" y="5.375" transform="rotate(0)"><tspan id="SvgjsTspan1091" dy="16" x="92.5"><tspan id="SvgjsTspan1092" style="text-decoration:;">MenuViewController</tspan></tspan></text></g><g id="SvgjsG1093"><text id="SvgjsText1094" font-family="微软雅黑" text-anchor="start" font-size="13px" width="165px" fill="#323232" font-weight="400" align="middle" lineHeight="125%" anchor="start" family="微软雅黑" size="13px" weight="400" font-style="" opacity="1" y="34.625" transform="rotate(0)"><tspan id="SvgjsTspan1095" dy="16" x="10"><tspan id="SvgjsTspan1096" style="text-decoration:;">特性：</tspan></tspan><tspan id="SvgjsTspan1097" dy="16" x="10"><tspan id="SvgjsTspan1098" style="text-decoration:;">1.auctionId</tspan></tspan><tspan id="SvgjsTspan1099" dy="16" x="10"><tspan id="SvgjsTspan1100" style="text-decoration:;">2.title</tspan></tspan><tspan id="SvgjsTspan1101" dy="16" x="10"><tspan id="SvgjsTspan1102" style="text-decoration:;">3.reservePrice</tspan></tspan><tspan id="SvgjsTspan1103" dy="16" x="10"><tspan id="SvgjsTspan1104" style="text-decoration:;">4.monthSell</tspan></tspan><tspan id="SvgjsTspan1105" dy="16" x="10"><tspan id="SvgjsTspan1106" style="text-decoration:;">……</tspan></tspan></text></g><g id="SvgjsG1107"><text id="SvgjsText1108" font-family="微软雅黑" text-anchor="start" font-size="13px" width="165px" fill="#323232" font-weight="400" align="middle" lineHeight="125%" anchor="start" family="微软雅黑" size="13px" weight="400" font-style="" opacity="1" y="175.125" transform="rotate(0)"><tspan id="SvgjsTspan1109" dy="16" x="10"><tspan id="SvgjsTspan1110" style="text-decoration:;">操作：</tspan></tspan><tspan id="SvgjsTspan1111" dy="16" x="10"><tspan id="SvgjsTspan1112" style="text-decoration:;">    -</tspan></tspan></text></g></g><g id="SvgjsG1113"><path id="SvgjsPath1114" d="M489 255L489 214L489 214L489 173" stroke="#323232" stroke-width="2" fill="none" marker-end="url(#SvgjsMarker1115)"></path></g><g id="SvgjsG1117" transform="translate(266,280)"><path id="SvgjsPath1118" d="M 0 0L 107 0L 123 16L 123 76L 0 76L 0 0Z" stroke="rgba(50,50,50,1)" stroke-width="2" fill-opacity="1" fill="#99ffff"></path><path id="SvgjsPath1119" d="M 107 0L 107 16L 123 16" stroke="rgba(50,50,50,1)" stroke-width="2" fill-opacity="1" fill="#99ffff"></path><path id="SvgjsPath1120" d="M 0 0L 107 0L 123 16L 123 76L 0 76L 0 0Z" stroke="rgba(50,50,50,1)" stroke-width="2" fill="none"></path><g id="SvgjsG1121"><text id="SvgjsText1122" font-family="微软雅黑" text-anchor="start" font-size="13px" width="103px" fill="#323232" font-weight="400" align="middle" lineHeight="125%" anchor="start" family="微软雅黑" size="13px" weight="400" font-style="" opacity="1" y="4.375" transform="rotate(0)"><tspan id="SvgjsTspan1123" dy="16" x="10"><tspan id="SvgjsTspan1124" style="text-decoration:;">泛化，实线空心</tspan></tspan><tspan id="SvgjsTspan1125" dy="16" x="10"><tspan id="SvgjsTspan1126" style="text-decoration:;">箭头。</tspan></tspan><tspan id="SvgjsTspan1127" dy="16" x="10"><tspan id="SvgjsTspan1128" style="text-decoration:;">一种继承关系。</tspan></tspan><tspan id="SvgjsTspan1129" dy="16" x="10"><tspan id="SvgjsTspan1130" style="text-decoration:;">特化父类的行为</tspan></tspan></text></g></g><g id="SvgjsG1131" transform="translate(738,435)"><path id="SvgjsPath1132" d="M 0 4Q 0 0 4 0L 102 0Q 106 0 106 4L 106 78Q 106 82 102 82L 4 82Q 0 82 0 78Z" stroke="rgba(50,50,50,1)" stroke-width="2" fill-opacity="1" fill="#ffffff"></path><path id="SvgjsPath1133" d="M 0 30L 106 30M 0 56L 106 56" stroke="rgba(50,50,50,1)" stroke-width="2" fill="none"></path><path id="SvgjsPath1134" d="M 0 0L 106 0L 106 82L 0 82Z" stroke="none" fill="none"></path><g id="SvgjsG1135"><text id="SvgjsText1136" font-family="微软雅黑" text-anchor="middle" font-size="13px" width="86px" fill="#323232" font-weight="700" align="middle" lineHeight="125%" anchor="middle" family="微软雅黑" size="13px" weight="700" font-style="" opacity="1" y="5.375" transform="rotate(0)"><tspan id="SvgjsTspan1137" dy="16" x="53"><tspan id="SvgjsTspan1138" style="text-decoration:;">翅膀</tspan></tspan></text></g><g id="SvgjsG1139"><text id="SvgjsText1140" font-family="微软雅黑" text-anchor="start" font-size="13px" width="86px" fill="#323232" font-weight="400" align="middle" lineHeight="125%" anchor="start" family="微软雅黑" size="13px" weight="400" font-style="" opacity="1" y="33.375" transform="rotate(0)"><tspan id="SvgjsTspan1141" dy="16" x="10"><tspan id="SvgjsTspan1142" style="text-decoration:;">特性：</tspan></tspan></text></g><g id="SvgjsG1143"><text id="SvgjsText1144" font-family="微软雅黑" text-anchor="start" font-size="13px" width="86px" fill="#323232" font-weight="400" align="middle" lineHeight="125%" anchor="start" family="微软雅黑" size="13px" weight="400" font-style="" opacity="1" y="59.375" transform="rotate(0)"><tspan id="SvgjsTspan1145" dy="16" x="10"><tspan id="SvgjsTspan1146" style="text-decoration:;">操作</tspan></tspan></text></g></g><g id="SvgjsG1147"><path id="SvgjsPath1148" d="M738 476L659.75 476L659.75 378.5L581.5 378.5" stroke="#323232" stroke-width="2" fill="none" marker-end="url(#SvgjsMarker1149)"></path></g><g id="SvgjsG1151"><path id="SvgjsPath1152" d="M581.5 378.5L659.75 378.5L659.75 476L738 476" stroke="#323232" stroke-width="2" fill="none" marker-end="url(#SvgjsMarker1153)"></path></g><g id="SvgjsG1155" transform="translate(672,296)"><path id="SvgjsPath1156" d="M 0 0L 123 0L 139 16L 139 131L 0 131L 0 0Z" stroke="rgba(50,50,50,1)" stroke-width="2" fill-opacity="1" fill="#ffcccc"></path><path id="SvgjsPath1157" d="M 123 0L 123 16L 139 16" stroke="rgba(50,50,50,1)" stroke-width="2" fill-opacity="1" fill="#ffcccc"></path><path id="SvgjsPath1158" d="M 0 0L 123 0L 139 16L 139 131L 0 131L 0 0Z" stroke="rgba(50,50,50,1)" stroke-width="2" fill="none"></path><g id="SvgjsG1159"><text id="SvgjsText1160" font-family="微软雅黑" text-anchor="start" font-size="13px" width="119px" fill="#323232" font-weight="400" align="middle" lineHeight="125%" anchor="start" family="微软雅黑" size="13px" weight="400" font-style="" opacity="1" y="15.875" transform="rotate(0)"><tspan id="SvgjsTspan1161" dy="16" x="10"><tspan id="SvgjsTspan1162" style="text-decoration:;">组合，实心菱形实线</tspan></tspan><tspan id="SvgjsTspan1163" dy="16" x="10"><tspan id="SvgjsTspan1164" style="text-decoration:;">箭头。</tspan></tspan><tspan id="SvgjsTspan1165" dy="16" x="10"><tspan id="SvgjsTspan1166" style="text-decoration:;">整体与部分的关系，</tspan></tspan><tspan id="SvgjsTspan1167" dy="16" x="10"><tspan id="SvgjsTspan1168" style="text-decoration:;">部分不能脱离整体而</tspan></tspan><tspan id="SvgjsTspan1169" dy="16" x="10"><tspan id="SvgjsTspan1170" style="text-decoration:;">存在。</tspan></tspan><tspan id="SvgjsTspan1171" dy="16" x="10"><tspan id="SvgjsTspan1172" style="text-decoration:;">定义方式为成员变量</tspan></tspan></text></g></g><g id="SvgjsG1173" transform="translate(549,484)"><path id="SvgjsPath1174" d="M 0 0L 24 0L 24 29L 0 29Z" stroke="none" fill="none"></path><g id="SvgjsG1175"><text id="SvgjsText1176" font-family="微软雅黑" text-anchor="middle" font-size="13px" width="24px" fill="#323232" font-weight="400" align="middle" lineHeight="125%" anchor="middle" family="微软雅黑" size="13px" weight="400" font-style="" opacity="1" y="4.875" transform="rotate(0)"><tspan id="SvgjsTspan1177" dy="16" x="12"><tspan id="SvgjsTspan1178" style="text-decoration:;">1</tspan></tspan></text></g></g><g id="SvgjsG1179" transform="translate(714,484)"><path id="SvgjsPath1180" d="M 0 0L 24 0L 24 29L 0 29Z" stroke="none" fill="none"></path><g id="SvgjsG1181"><text id="SvgjsText1182" font-family="微软雅黑" text-anchor="middle" font-size="13px" width="24px" fill="#323232" font-weight="400" align="middle" lineHeight="125%" anchor="middle" family="微软雅黑" size="13px" weight="400" font-style="" opacity="1" y="4.875" transform="rotate(0)"><tspan id="SvgjsTspan1183" dy="16" x="12"><tspan id="SvgjsTspan1184" style="text-decoration:;">2</tspan></tspan></text></g></g><g id="SvgjsG1185" transform="translate(155,608)"><path id="SvgjsPath1186" d="M 0 4Q 0 0 4 0L 148 0Q 152 0 152 4L 152 124.01043701171875Q 152 128.01043701171875 148 128.01043701171875L 4 128.01043701171875Q 0 128.01043701171875 0 124.01043701171875Z" stroke="rgba(50,50,50,1)" stroke-width="2" fill-opacity="1" fill="#ffffff"></path><path id="SvgjsPath1187" d="M 0 30L 152 30M 0 79.00521850585938L 152 79.00521850585938" stroke="rgba(50,50,50,1)" stroke-width="2" fill="none"></path><path id="SvgjsPath1188" d="M 0 0L 152 0L 152 128.01043701171875L 0 128.01043701171875Z" stroke="none" fill="none"></path><g id="SvgjsG1189"><text id="SvgjsText1190" font-family="微软雅黑" text-anchor="middle" font-size="13px" width="132px" fill="#323232" font-weight="700" align="middle" lineHeight="125%" anchor="middle" family="微软雅黑" size="13px" weight="700" font-style="" opacity="1" y="5.375" transform="rotate(0)"><tspan id="SvgjsTspan1191" dy="16" x="76"><tspan id="SvgjsTspan1192" style="text-decoration:;">大雁</tspan></tspan></text></g><g id="SvgjsG1193"><text id="SvgjsText1194" font-family="微软雅黑" text-anchor="start" font-size="13px" width="132px" fill="#323232" font-weight="400" align="middle" lineHeight="125%" anchor="start" family="微软雅黑" size="13px" weight="400" font-style="" opacity="1" y="44.87760925292969" transform="rotate(0)"><tspan id="SvgjsTspan1195" dy="16" x="10"><tspan id="SvgjsTspan1196" style="text-decoration:;">特性：</tspan></tspan></text></g><g id="SvgjsG1197"><text id="SvgjsText1198" font-family="微软雅黑" text-anchor="start" font-size="13px" width="132px" fill="#323232" font-weight="400" align="middle" lineHeight="125%" anchor="start" family="微软雅黑" size="13px" weight="400" font-style="" opacity="1" y="77.88282775878906" transform="rotate(0)"><tspan id="SvgjsTspan1199" dy="16" x="10"><tspan id="SvgjsTspan1200" style="text-decoration:;">操作：</tspan></tspan><tspan id="SvgjsTspan1201" dy="16" x="10"><tspan id="SvgjsTspan1202" style="text-decoration:;">    +下蛋()</tspan></tspan><tspan id="SvgjsTspan1203" dy="16" x="10"><tspan id="SvgjsTspan1204" style="text-decoration:;">    +飞()</tspan></tspan></text></g></g><g id="SvgjsG1205" transform="translate(396.5,608)"><path id="SvgjsPath1206" d="M 0 4Q 0 0 4 0L 145 0Q 149 0 149 4L 149 95Q 149 99 145 99L 4 99Q 0 99 0 95Z" stroke="rgba(50,50,50,1)" stroke-width="2" fill-opacity="1" fill="#ffffff"></path><path id="SvgjsPath1207" d="M 0 30L 149 30M 0 64.5L 149 64.5" stroke="rgba(50,50,50,1)" stroke-width="2" fill="none"></path><path id="SvgjsPath1208" d="M 0 0L 149 0L 149 99L 0 99Z" stroke="none" fill="none"></path><g id="SvgjsG1209"><text id="SvgjsText1210" font-family="微软雅黑" text-anchor="middle" font-size="13px" width="129px" fill="#323232" font-weight="700" align="middle" lineHeight="125%" anchor="middle" family="微软雅黑" size="13px" weight="700" font-style="" opacity="1" y="5.375" transform="rotate(0)"><tspan id="SvgjsTspan1211" dy="16" x="74.5"><tspan id="SvgjsTspan1212" style="text-decoration:;">鸭子</tspan></tspan></text></g><g id="SvgjsG1213"><text id="SvgjsText1214" font-family="微软雅黑" text-anchor="start" font-size="13px" width="129px" fill="#323232" font-weight="400" align="middle" lineHeight="125%" anchor="start" family="微软雅黑" size="13px" weight="400" font-style="" opacity="1" y="37.625" transform="rotate(0)"><tspan id="SvgjsTspan1215" dy="16" x="10"><tspan id="SvgjsTspan1216" style="text-decoration:;">特性：</tspan></tspan></text></g><g id="SvgjsG1217"><text id="SvgjsText1218" font-family="微软雅黑" text-anchor="start" font-size="13px" width="129px" fill="#323232" font-weight="400" align="middle" lineHeight="125%" anchor="start" family="微软雅黑" size="13px" weight="400" font-style="" opacity="1" y="64.125" transform="rotate(0)"><tspan id="SvgjsTspan1219" dy="16" x="10"><tspan id="SvgjsTspan1220" style="text-decoration:;">操作：</tspan></tspan><tspan id="SvgjsTspan1221" dy="16" x="10"><tspan id="SvgjsTspan1222" style="text-decoration:;">    +下蛋()</tspan></tspan></text></g></g><g id="SvgjsG1223" transform="translate(730,608)"><path id="SvgjsPath1224" d="M 0 4Q 0 0 4 0L 150 0Q 154 0 154 4L 154 95Q 154 99 150 99L 4 99Q 0 99 0 95Z" stroke="rgba(50,50,50,1)" stroke-width="2" fill-opacity="1" fill="#ffffff"></path><path id="SvgjsPath1225" d="M 0 30L 154 30M 0 64.5L 154 64.5" stroke="rgba(50,50,50,1)" stroke-width="2" fill="none"></path><path id="SvgjsPath1226" d="M 0 0L 154 0L 154 99L 0 99Z" stroke="none" fill="none"></path><g id="SvgjsG1227"><text id="SvgjsText1228" font-family="微软雅黑" text-anchor="middle" font-size="13px" width="134px" fill="#323232" font-weight="700" align="middle" lineHeight="125%" anchor="middle" family="微软雅黑" size="13px" weight="700" font-style="" opacity="1" y="5.375" transform="rotate(0)"><tspan id="SvgjsTspan1229" dy="16" x="77"><tspan id="SvgjsTspan1230" style="text-decoration:;">企鹅</tspan></tspan></text></g><g id="SvgjsG1231"><text id="SvgjsText1232" font-family="微软雅黑" text-anchor="start" font-size="13px" width="134px" fill="#323232" font-weight="400" align="middle" lineHeight="125%" anchor="start" family="微软雅黑" size="13px" weight="400" font-style="" opacity="1" y="37.625" transform="rotate(0)"><tspan id="SvgjsTspan1233" dy="16" x="10"><tspan id="SvgjsTspan1234" style="text-decoration:;">特性：</tspan></tspan></text></g><g id="SvgjsG1235"><text id="SvgjsText1236" font-family="微软雅黑" text-anchor="start" font-size="13px" width="134px" fill="#323232" font-weight="400" align="middle" lineHeight="125%" anchor="start" family="微软雅黑" size="13px" weight="400" font-style="" opacity="1" y="64.125" transform="rotate(0)"><tspan id="SvgjsTspan1237" dy="16" x="10"><tspan id="SvgjsTspan1238" style="text-decoration:;">操作：</tspan></tspan><tspan id="SvgjsTspan1239" dy="16" x="10"><tspan id="SvgjsTspan1240" style="text-decoration:;">    +下蛋()</tspan></tspan></text></g></g><g id="SvgjsG1241"><path id="SvgjsPath1242" d="M231 608L231 555L489 555L489 502" stroke="#323232" stroke-width="2" fill="none" marker-end="url(#SvgjsMarker1243)"></path></g><g id="SvgjsG1245"><path id="SvgjsPath1246" d="M471 608L471 555L489 555L489 502" stroke="#323232" stroke-width="2" fill="none" marker-end="url(#SvgjsMarker1247)"></path></g><g id="SvgjsG1249"><path id="SvgjsPath1250" d="M807 608L807 555L489 555L489 502" stroke="#323232" stroke-width="2" fill="none" marker-end="url(#SvgjsMarker1251)"></path></g><g id="SvgjsG1253" transform="translate(107,350)"><path id="SvgjsPath1254" d="M 0 4Q 0 0 4 0L 140 0Q 144 0 144 4L 144 81Q 144 85 140 85L 4 85Q 0 85 0 81Z" stroke="rgba(50,50,50,1)" stroke-width="2" fill-opacity="1" fill="#ffffff"></path><path id="SvgjsPath1255" d="M 0 30L 144 30" stroke="rgba(50,50,50,1)" stroke-width="2" fill="none"></path><path id="SvgjsPath1256" d="M 0 0L 144 0L 144 85L 0 85Z" stroke="none" fill="none"></path><g id="SvgjsG1257"><text id="SvgjsText1258" font-family="微软雅黑" text-anchor="middle" font-size="13px" width="124px" fill="#323232" font-weight="700" align="middle" lineHeight="125%" anchor="middle" family="微软雅黑" size="13px" weight="700" font-style="" opacity="1" y="5.375" transform="rotate(0)"><tspan id="SvgjsTspan1259" dy="16" x="72"><tspan id="SvgjsTspan1260" style="text-decoration:;">飞</tspan></tspan></text></g><g id="SvgjsG1261"><text id="SvgjsText1262" font-family="微软雅黑" text-anchor="start" font-size="13px" width="124px" fill="#323232" font-weight="400" align="middle" lineHeight="125%" anchor="start" family="微软雅黑" size="13px" weight="400" font-style="" opacity="1" y="39.875" transform="rotate(0)"><tspan id="SvgjsTspan1263" dy="16" x="10"><tspan id="SvgjsTspan1264" style="text-decoration:;">操作：</tspan></tspan><tspan id="SvgjsTspan1265" dy="16" x="10"><tspan id="SvgjsTspan1266" style="text-decoration:;">    +飞()</tspan></tspan></text></g></g><g id="SvgjsG1267"><path id="SvgjsPath1268" d="M179 608L179 521.5L179 521.5L179 435" stroke-dasharray="8,5" stroke="#323232" stroke-width="2" fill="none" marker-end="url(#SvgjsMarker1269)"></path></g><g id="SvgjsG1271" transform="translate(47,465)"><path id="SvgjsPath1272" d="M 0 0L 109 0L 125 16L 125 95L 0 95L 0 0Z" stroke="rgba(50,50,50,1)" stroke-width="2" fill-opacity="1" fill="#ffcce6"></path><path id="SvgjsPath1273" d="M 109 0L 109 16L 125 16" stroke="rgba(50,50,50,1)" stroke-width="2" fill-opacity="1" fill="#ffcce6"></path><path id="SvgjsPath1274" d="M 0 0L 109 0L 125 16L 125 95L 0 95L 0 0Z" stroke="rgba(50,50,50,1)" stroke-width="2" fill="none"></path><g id="SvgjsG1275"><text id="SvgjsText1276" font-family="微软雅黑" text-anchor="start" font-size="13px" width="105px" fill="#323232" font-weight="400" align="middle" lineHeight="125%" anchor="start" family="微软雅黑" size="13px" weight="400" font-style="" opacity="1" y="21.875" transform="rotate(0)"><tspan id="SvgjsTspan1277" dy="16" x="10"><tspan id="SvgjsTspan1278" style="text-decoration:;">实现关系，虚线空</tspan></tspan><tspan id="SvgjsTspan1279" dy="16" x="10"><tspan id="SvgjsTspan1280" style="text-decoration:;">心箭头。</tspan></tspan><tspan id="SvgjsTspan1281" dy="16" x="10"><tspan id="SvgjsTspan1282" style="text-decoration:;">标示类实现接口</tspan></tspan></text></g></g><g id="SvgjsG1283" transform="translate(156,886)"><path id="SvgjsPath1284" d="M 0 4Q 0 0 4 0L 146 0Q 150 0 150 4L 150 93.01043701171875Q 150 97.01043701171875 146 97.01043701171875L 4 97.01043701171875Q 0 97.01043701171875 0 93.01043701171875Z" stroke="rgba(50,50,50,1)" stroke-width="2" fill-opacity="1" fill="#ffffff"></path><path id="SvgjsPath1285" d="M 0 30L 150 30M 0 63.505218505859375L 150 63.505218505859375" stroke="rgba(50,50,50,1)" stroke-width="2" fill="none"></path><path id="SvgjsPath1286" d="M 0 0L 150 0L 150 97.01043701171875L 0 97.01043701171875Z" stroke="none" fill="none"></path><g id="SvgjsG1287"><text id="SvgjsText1288" font-family="微软雅黑" text-anchor="middle" font-size="13px" width="130px" fill="#323232" font-weight="700" align="middle" lineHeight="125%" anchor="middle" family="微软雅黑" size="13px" weight="700" font-style="" opacity="1" y="5.375" transform="rotate(0)"><tspan id="SvgjsTspan1289" dy="16" x="75"><tspan id="SvgjsTspan1290" style="text-decoration:;">雁群</tspan></tspan></text></g><g id="SvgjsG1291"><text id="SvgjsText1292" font-family="微软雅黑" text-anchor="start" font-size="13px" width="130px" fill="#323232" font-weight="400" align="middle" lineHeight="125%" anchor="start" family="微软雅黑" size="13px" weight="400" font-style="" opacity="1" y="37.12760925292969" transform="rotate(0)"><tspan id="SvgjsTspan1293" dy="16" x="10"><tspan id="SvgjsTspan1294" style="text-decoration:;">特性：</tspan></tspan></text></g><g id="SvgjsG1295"><text id="SvgjsText1296" font-family="微软雅黑" text-anchor="start" font-size="13px" width="130px" fill="#323232" font-weight="400" align="middle" lineHeight="125%" anchor="start" family="微软雅黑" size="13px" weight="400" font-style="" opacity="1" y="70.63282775878906" transform="rotate(0)"><tspan id="SvgjsTspan1297" dy="16" x="10"><tspan id="SvgjsTspan1298" style="text-decoration:;">操作：</tspan></tspan></text></g></g><g id="SvgjsG1299"><path id="SvgjsPath1300" d="M231 886L231 811.0052185058594L231 811.0052185058594L231 736.0104370117188" stroke="#323232" stroke-width="2" fill="none" marker-end="url(#SvgjsMarker1301)"></path></g><g id="SvgjsG1303"><path id="SvgjsPath1304" d="M231 736.0104370117188L231 811.0052185058594L231 811.0052185058594L231 886" stroke="#323232" stroke-width="2" fill="none" marker-end="url(#SvgjsMarker1305)"></path></g><g id="SvgjsG1307" transform="translate(242,748)"><path id="SvgjsPath1308" d="M 0 0L 24 0L 24 24L 0 24Z" stroke="none" fill="none"></path><g id="SvgjsG1309"><text id="SvgjsText1310" font-family="微软雅黑" text-anchor="middle" font-size="13px" width="24px" fill="#323232" font-weight="400" align="middle" lineHeight="125%" anchor="middle" family="微软雅黑" size="13px" weight="400" font-style="" opacity="1" y="2.375" transform="rotate(0)"><tspan id="SvgjsTspan1311" dy="16" x="12"><tspan id="SvgjsTspan1312" style="text-decoration:;">1</tspan></tspan></text></g></g><g id="SvgjsG1313" transform="translate(242,881)"><path id="SvgjsPath1314" d="M 0 0L 24 0L 24 24L 0 24Z" stroke="none" fill="none"></path><g id="SvgjsG1315"><text id="SvgjsText1316" font-family="微软雅黑" text-anchor="middle" font-size="13px" width="24px" fill="#323232" font-weight="400" align="middle" lineHeight="125%" anchor="middle" family="微软雅黑" size="13px" weight="400" font-style="" opacity="1" y="2.375" transform="rotate(0)"><tspan id="SvgjsTspan1317" dy="16" x="12"><tspan id="SvgjsTspan1318" style="text-decoration:;">n</tspan></tspan></text></g></g><g id="SvgjsG1319" transform="translate(25,751)"><path id="SvgjsPath1320" d="M 0 0L 144 0L 160 16L 160 127L 0 127L 0 0Z" stroke="rgba(50,50,50,1)" stroke-width="2" fill-opacity="1" fill="#99ff99"></path><path id="SvgjsPath1321" d="M 144 0L 144 16L 160 16" stroke="rgba(50,50,50,1)" stroke-width="2" fill-opacity="1" fill="#99ff99"></path><path id="SvgjsPath1322" d="M 0 0L 144 0L 160 16L 160 127L 0 127L 0 0Z" stroke="rgba(50,50,50,1)" stroke-width="2" fill="none"></path><g id="SvgjsG1323"><text id="SvgjsText1324" font-family="微软雅黑" text-anchor="start" font-size="13px" width="140px" fill="#323232" font-weight="400" align="middle" lineHeight="125%" anchor="start" family="微软雅黑" size="13px" weight="400" font-style="" opacity="1" y="5.875" transform="rotate(0)"><tspan id="SvgjsTspan1325" dy="16" x="10"><tspan id="SvgjsTspan1326" style="text-decoration:;">聚合关系，空心菱形实</tspan></tspan><tspan id="SvgjsTspan1327" dy="16" x="10"><tspan id="SvgjsTspan1328" style="text-decoration:;">线箭头。</tspan></tspan><tspan id="SvgjsTspan1329" dy="16" x="10"><tspan id="SvgjsTspan1330" style="text-decoration:;">整体与部分的关系，与</tspan></tspan><tspan id="SvgjsTspan1331" dy="16" x="10"><tspan id="SvgjsTspan1332" style="text-decoration:;">组合类似，不同的是聚</tspan></tspan><tspan id="SvgjsTspan1333" dy="16" x="10"><tspan id="SvgjsTspan1334" style="text-decoration:;">合个体可以脱离整体而</tspan></tspan><tspan id="SvgjsTspan1335" dy="16" x="10"><tspan id="SvgjsTspan1336" style="text-decoration:;">存在。</tspan></tspan><tspan id="SvgjsTspan1337" dy="16" x="10"><tspan id="SvgjsTspan1338" style="text-decoration:;">定义方式为成员变量。</tspan></tspan></text></g></g><g id="SvgjsG1339" transform="translate(505.7152862548828,825)"><path id="SvgjsPath1340" d="M 0 4Q 0 0 4 0L 144.56942749023438 0Q 148.56942749023438 0 148.56942749023438 4L 148.56942749023438 99.01043701171875Q 148.56942749023438 103.01043701171875 144.56942749023438 103.01043701171875L 4 103.01043701171875Q 0 103.01043701171875 0 99.01043701171875Z" stroke="rgba(50,50,50,1)" stroke-width="2" fill-opacity="1" fill="#ffffff"></path><path id="SvgjsPath1341" d="M 0 30L 148.56942749023438 30M 0 66.50521850585938L 148.56942749023438 66.50521850585938" stroke="rgba(50,50,50,1)" stroke-width="2" fill="none"></path><path id="SvgjsPath1342" d="M 0 0L 148.56942749023438 0L 148.56942749023438 103.01043701171875L 0 103.01043701171875Z" stroke="none" fill="none"></path><g id="SvgjsG1343"><text id="SvgjsText1344" font-family="微软雅黑" text-anchor="middle" font-size="13px" width="129px" fill="#323232" font-weight="700" align="middle" lineHeight="125%" anchor="middle" family="微软雅黑" size="13px" weight="700" font-style="" opacity="1" y="5.375" transform="rotate(0)"><tspan id="SvgjsTspan1345" dy="16" x="74.5"><tspan id="SvgjsTspan1346" style="text-decoration:;">唐老鸭</tspan></tspan></text></g><g id="SvgjsG1347"><text id="SvgjsText1348" font-family="微软雅黑" text-anchor="start" font-size="13px" width="129px" fill="#323232" font-weight="400" align="middle" lineHeight="125%" anchor="start" family="微软雅黑" size="13px" weight="400" font-style="" opacity="1" y="38.62760925292969" transform="rotate(0)"><tspan id="SvgjsTspan1349" dy="16" x="10"><tspan id="SvgjsTspan1350" style="text-decoration:;">特性：</tspan></tspan></text></g><g id="SvgjsG1351"><text id="SvgjsText1352" font-family="微软雅黑" text-anchor="start" font-size="13px" width="129px" fill="#323232" font-weight="400" align="middle" lineHeight="125%" anchor="start" family="微软雅黑" size="13px" weight="400" font-style="" opacity="1" y="67.13282775878906" transform="rotate(0)"><tspan id="SvgjsTspan1353" dy="16" x="10"><tspan id="SvgjsTspan1354" style="text-decoration:;">操作：</tspan></tspan><tspan id="SvgjsTspan1355" dy="16" x="10"><tspan id="SvgjsTspan1356" style="text-decoration:;">    +说话()</tspan></tspan></text></g></g><g id="SvgjsG1357" transform="translate(732,878)"><path id="SvgjsPath1358" d="M 0 4Q 0 0 4 0L 146 0Q 150 0 150 4L 150 104Q 150 108 146 108L 4 108Q 0 108 0 104Z" stroke="rgba(50,50,50,1)" stroke-width="2" fill-opacity="1" fill="#ffffff"></path><path id="SvgjsPath1359" d="M 0 30L 150 30M 0 69L 150 69" stroke="rgba(50,50,50,1)" stroke-width="2" fill="none"></path><path id="SvgjsPath1360" d="M 0 0L 150 0L 150 108L 0 108Z" stroke="none" fill="none"></path><g id="SvgjsG1361"><text id="SvgjsText1362" font-family="微软雅黑" text-anchor="middle" font-size="13px" width="130px" fill="#323232" font-weight="700" align="middle" lineHeight="125%" anchor="middle" family="微软雅黑" size="13px" weight="700" font-style="" opacity="1" y="5.375" transform="rotate(0)"><tspan id="SvgjsTspan1363" dy="16" x="75"><tspan id="SvgjsTspan1364" style="text-decoration:;">气候</tspan></tspan></text></g><g id="SvgjsG1365"><text id="SvgjsText1366" font-family="微软雅黑" text-anchor="start" font-size="13px" width="130px" fill="#323232" font-weight="400" align="middle" lineHeight="125%" anchor="start" family="微软雅黑" size="13px" weight="400" font-style="" opacity="1" y="39.875" transform="rotate(0)"><tspan id="SvgjsTspan1367" dy="16" x="10"><tspan id="SvgjsTspan1368" style="text-decoration:;">特性：</tspan></tspan></text></g><g id="SvgjsG1369"><text id="SvgjsText1370" font-family="微软雅黑" text-anchor="start" font-size="13px" width="130px" fill="#323232" font-weight="400" align="middle" lineHeight="125%" anchor="start" family="微软雅黑" size="13px" weight="400" font-style="" opacity="1" y="78.875" transform="rotate(0)"><tspan id="SvgjsTspan1371" dy="16" x="10"><tspan id="SvgjsTspan1372" style="text-decoration:;">操作：</tspan></tspan></text></g></g><g id="SvgjsG1373"><path id="SvgjsPath1374" d="M807 707L807 792.5L807 792.5L807 878" stroke="#323232" stroke-width="2" fill="none" marker-end="url(#SvgjsMarker1375)"></path></g><g id="SvgjsG1377" transform="translate(311,780.0052185058594)"><path id="SvgjsPath1378" d="M 0 4Q 0 0 4 0L 140 0Q 144 0 144 4L 144 81Q 144 85 140 85L 4 85Q 0 85 0 81Z" stroke="rgba(50,50,50,1)" stroke-width="2" fill-opacity="1" fill="#ffffff"></path><path id="SvgjsPath1379" d="M 0 30L 144 30" stroke="rgba(50,50,50,1)" stroke-width="2" fill="none"></path><path id="SvgjsPath1380" d="M 0 0L 144 0L 144 85L 0 85Z" stroke="none" fill="none"></path><g id="SvgjsG1381"><text id="SvgjsText1382" font-family="微软雅黑" text-anchor="middle" font-size="13px" width="124px" fill="#323232" font-weight="700" align="middle" lineHeight="125%" anchor="middle" family="微软雅黑" size="13px" weight="700" font-style="" opacity="1" y="5.375" transform="rotate(0)"><tspan id="SvgjsTspan1383" dy="16" x="72"><tspan id="SvgjsTspan1384" style="text-decoration:;">说话</tspan></tspan></text></g><g id="SvgjsG1385"><text id="SvgjsText1386" font-family="微软雅黑" text-anchor="start" font-size="13px" width="124px" fill="#323232" font-weight="400" align="middle" lineHeight="125%" anchor="start" family="微软雅黑" size="13px" weight="400" font-style="" opacity="1" y="39.875" transform="rotate(0)"><tspan id="SvgjsTspan1387" dy="16" x="10"><tspan id="SvgjsTspan1388" style="text-decoration:;">操作：</tspan></tspan><tspan id="SvgjsTspan1389" dy="16" x="10"><tspan id="SvgjsTspan1390" style="text-decoration:;">    +说话()</tspan></tspan></text></g></g><g id="SvgjsG1391"><path id="SvgjsPath1392" d="M505.7152862548828 876.5052185058594L481.3576431274414 876.5052185058594L481.3576431274414 822.5052185058594L455 822.5052185058594" stroke-dasharray="8,5" stroke="#323232" stroke-width="2" fill="none" marker-end="url(#SvgjsMarker1393)"></path></g><g id="SvgjsG1395"><path id="SvgjsPath1396" d="M580 825L580 657.5L545.5 657.5" stroke="#323232" stroke-width="2" fill="none" marker-end="url(#SvgjsMarker1397)"></path></g><g id="SvgjsG1399" transform="translate(672,742)"><path id="SvgjsPath1400" d="M 0 0L 108.125 0L 124.125 16L 124.125 94L 0 94L 0 0Z" stroke="rgba(50,50,50,1)" stroke-width="2" fill-opacity="1" fill="#cce5ff"></path><path id="SvgjsPath1401" d="M 108.125 0L 108.125 16L 124.125 16" stroke="rgba(50,50,50,1)" stroke-width="2" fill-opacity="1" fill="#cce5ff"></path><path id="SvgjsPath1402" d="M 0 0L 108.125 0L 124.125 16L 124.125 94L 0 94L 0 0Z" stroke="rgba(50,50,50,1)" stroke-width="2" fill="none"></path><g id="SvgjsG1403"><text id="SvgjsText1404" font-family="微软雅黑" text-anchor="start" font-size="13px" width="105px" fill="#323232" font-weight="400" align="middle" lineHeight="125%" anchor="start" family="微软雅黑" size="13px" weight="400" font-style="" opacity="1" y="13.375" transform="rotate(0)"><tspan id="SvgjsTspan1405" dy="16" x="10"><tspan id="SvgjsTspan1406" style="text-decoration:;">关联关系，实线箭</tspan></tspan><tspan id="SvgjsTspan1407" dy="16" x="10"><tspan id="SvgjsTspan1408" style="text-decoration:;">头。</tspan></tspan><tspan id="SvgjsTspan1409" dy="16" x="10"><tspan id="SvgjsTspan1410" style="text-decoration:;">定义方式为成员变</tspan></tspan><tspan id="SvgjsTspan1411" dy="16" x="10"><tspan id="SvgjsTspan1412" style="text-decoration:;">量</tspan></tspan></text></g></g></svg>