<?xml version="1.0" encoding="UTF-8" standalone="no"?>
<!DOCTYPE svg PUBLIC "-//W3C//DTD SVG 1.1//EN"
 "http://www.w3.org/Graphics/SVG/1.1/DTD/svg11.dtd">
<!-- Generated by graphviz version 2.40.1 (20161225.0304)
 -->
<!-- Title: G Pages: 1 -->
<svg width="680pt" height="1114pt"
 viewBox="0.00 0.00 680.00 1114.00" xmlns="http://www.w3.org/2000/svg" xmlns:xlink="http://www.w3.org/1999/xlink">
<g id="graph0" class="graph" transform="scale(1 1) rotate(0) translate(4 1110)">
<title>G</title>
<polygon fill="#ffffff" stroke="transparent" points="-4,4 -4,-1110 676,-1110 676,4 -4,4"/>
<!-- handle_callback -->
<g id="node1" class="node">
<title>handle_callback</title>
<polygon fill="#f5deb3" stroke="#000000" points="147,-549 0,-549 0,-513 147,-513 147,-549"/>
<text text-anchor="middle" x="73.5" y="-527.2" font-family="Times,serif" font-size="16.00" fill="#0000ff">handle_callback</text>
</g>
<!-- system -->
<g id="node2" class="node">
<title>system</title>
<polygon fill="#f5deb3" stroke="#000000" points="314.5,-1042 242.5,-1042 242.5,-1006 314.5,-1006 314.5,-1042"/>
<text text-anchor="middle" x="278.5" y="-1020.2" font-family="Times,serif" font-size="16.00" fill="#0000ff">system</text>
</g>
<!-- handle_callback&#45;&gt;system -->
<g id="edge1" class="edge">
<title>handle_callback&#45;&gt;system</title>
<path fill="none" stroke="#000000" d="M75.4633,-549.1459C84.1269,-626.0762 121.2689,-924.4394 183,-992 195.6206,-1005.8124 214.3748,-1013.6688 231.9305,-1018.1351"/>
<polygon fill="#000000" stroke="#000000" points="231.5516,-1021.6363 242.0731,-1020.3924 233.0723,-1014.8035 231.5516,-1021.6363"/>
</g>
<!-- LOG_ERROR -->
<g id="node3" class="node">
<title>LOG_ERROR</title>
<polygon fill="#f5deb3" stroke="#000000" points="671.5,-1052 550.5,-1052 550.5,-1016 671.5,-1016 671.5,-1052"/>
<text text-anchor="middle" x="611" y="-1030.2" font-family="Times,serif" font-size="16.00" fill="#0000ff">LOG_ERROR</text>
</g>
<!-- handle_callback&#45;&gt;LOG_ERROR -->
<g id="edge2" class="edge">
<title>handle_callback&#45;&gt;LOG_ERROR</title>
<path fill="none" stroke="#000000" d="M76.9631,-549.0761C89.5021,-612.7401 134.3604,-825.2499 183,-872 293.0836,-977.8073 385.6533,-881.2915 514,-964 534.9512,-977.5012 530.0864,-992.0106 550,-1007 551.6308,-1008.2276 553.3262,-1009.4141 555.0696,-1010.5594"/>
<polygon fill="#000000" stroke="#000000" points="553.7263,-1013.8329 564.1092,-1015.9416 557.3075,-1007.8183 553.7263,-1013.8329"/>
</g>
<!-- length -->
<g id="node4" class="node">
<title>length</title>
<polygon fill="#f5deb3" stroke="#000000" points="312.5,-630 244.5,-630 244.5,-594 312.5,-594 312.5,-630"/>
<text text-anchor="middle" x="278.5" y="-608.2" font-family="Times,serif" font-size="16.00" fill="#0000ff">length</text>
</g>
<!-- handle_callback&#45;&gt;length -->
<g id="edge3" class="edge">
<title>handle_callback&#45;&gt;length</title>
<path fill="none" stroke="#000000" d="M106.3387,-549.162C127.7279,-560.4949 156.4867,-574.8127 183,-585 199.5156,-591.3459 218.1476,-596.9451 234.5407,-601.3756"/>
<polygon fill="#000000" stroke="#000000" points="233.8576,-604.815 244.4194,-603.9794 235.6418,-598.0462 233.8576,-604.815"/>
</g>
<!-- access -->
<g id="node5" class="node">
<title>access</title>
<polygon fill="#f5deb3" stroke="#000000" points="313.5,-576 243.5,-576 243.5,-540 313.5,-540 313.5,-576"/>
<text text-anchor="middle" x="278.5" y="-554.2" font-family="Times,serif" font-size="16.00" fill="#0000ff">access</text>
</g>
<!-- handle_callback&#45;&gt;access -->
<g id="edge4" class="edge">
<title>handle_callback&#45;&gt;access</title>
<path fill="none" stroke="#000000" d="M147.2201,-540.7095C175.9731,-544.4965 208.0142,-548.7165 233.2439,-552.0394"/>
<polygon fill="#000000" stroke="#000000" points="232.8864,-555.5225 243.2579,-553.3584 233.8006,-548.5824 232.8864,-555.5225"/>
</g>
<!-- memset -->
<g id="node6" class="node">
<title>memset</title>
<polygon fill="#f5deb3" stroke="#000000" points="650.5,-1106 571.5,-1106 571.5,-1070 650.5,-1070 650.5,-1106"/>
<text text-anchor="middle" x="611" y="-1084.2" font-family="Times,serif" font-size="16.00" fill="#0000ff">memset</text>
</g>
<!-- handle_callback&#45;&gt;memset -->
<g id="edge5" class="edge">
<title>handle_callback&#45;&gt;memset</title>
<path fill="none" stroke="#000000" d="M76.5406,-549.1076C88.2877,-617.183 132.5704,-856.7522 183,-913 196.4599,-928.0128 452.4704,-1027.2715 561.9811,-1069.2771"/>
<polygon fill="#000000" stroke="#000000" points="560.8953,-1072.6092 571.4856,-1072.9201 563.4007,-1066.0728 560.8953,-1072.6092"/>
</g>
<!-- memcpy -->
<g id="node7" class="node">
<title>memcpy</title>
<polygon fill="#f5deb3" stroke="#000000" points="652.5,-998 569.5,-998 569.5,-962 652.5,-962 652.5,-998"/>
<text text-anchor="middle" x="611" y="-976.2" font-family="Times,serif" font-size="16.00" fill="#0000ff">memcpy</text>
</g>
<!-- handle_callback&#45;&gt;memcpy -->
<g id="edge6" class="edge">
<title>handle_callback&#45;&gt;memcpy</title>
<path fill="none" stroke="#000000" d="M74.8043,-549.2725C79.4664,-600.6656 99.8007,-747.8077 183,-826 294.9843,-931.245 376.8776,-856.6139 514,-926 531.8454,-935.03 532.7449,-942.8876 550,-953 553.238,-954.8976 556.6337,-956.7475 560.0952,-958.5312"/>
<polygon fill="#000000" stroke="#000000" points="558.8314,-961.8101 569.3491,-963.086 561.9227,-955.5297 558.8314,-961.8101"/>
</g>
<!-- c_str -->
<g id="node8" class="node">
<title>c_str</title>
<polygon fill="#f5deb3" stroke="#000000" points="306.5,-522 250.5,-522 250.5,-486 306.5,-486 306.5,-522"/>
<text text-anchor="middle" x="278.5" y="-500.2" font-family="Times,serif" font-size="16.00" fill="#0000ff">c_str</text>
</g>
<!-- handle_callback&#45;&gt;c_str -->
<g id="edge7" class="edge">
<title>handle_callback&#45;&gt;c_str</title>
<path fill="none" stroke="#000000" d="M147.2201,-521.2905C178.6971,-517.1448 214.1146,-512.48 240.2225,-509.0414"/>
<polygon fill="#000000" stroke="#000000" points="240.9916,-512.4704 250.4489,-507.6945 240.0775,-505.5304 240.9916,-512.4704"/>
</g>
<!-- fopen -->
<g id="node9" class="node">
<title>fopen</title>
<polygon fill="#f5deb3" stroke="#000000" points="642,-674 580,-674 580,-638 642,-638 642,-674"/>
<text text-anchor="middle" x="611" y="-652.2" font-family="Times,serif" font-size="16.00" fill="#0000ff">fopen</text>
</g>
<!-- handle_callback&#45;&gt;fopen -->
<g id="edge8" class="edge">
<title>handle_callback&#45;&gt;fopen</title>
<path fill="none" stroke="#000000" d="M79.9078,-549.1145C93.0693,-583.1809 126.7335,-655.9676 183,-685 311.2099,-751.1538 490.457,-700.5854 570.0897,-672.0627"/>
<polygon fill="#000000" stroke="#000000" points="571.5565,-675.2532 579.7489,-668.5348 569.155,-668.678 571.5565,-675.2532"/>
</g>
<!-- fclose -->
<g id="node10" class="node">
<title>fclose</title>
<polygon fill="#f5deb3" stroke="#000000" points="643,-566 579,-566 579,-530 643,-530 643,-566"/>
<text text-anchor="middle" x="611" y="-544.2" font-family="Times,serif" font-size="16.00" fill="#0000ff">fclose</text>
</g>
<!-- handle_callback&#45;&gt;fclose -->
<g id="edge9" class="edge">
<title>handle_callback&#45;&gt;fclose</title>
<path fill="none" stroke="#000000" d="M84.9649,-549.0814C102.4626,-574.7768 138.5331,-620.7606 183,-639 261.5387,-671.2149 290.5333,-654.4735 374,-639 412.6108,-631.8421 512.2971,-590.5594 569.3276,-566.1257"/>
<polygon fill="#000000" stroke="#000000" points="570.9719,-569.2286 578.7771,-562.0642 568.2077,-562.7975 570.9719,-569.2286"/>
</g>
<!-- fwrite -->
<g id="node11" class="node">
<title>fwrite</title>
<polygon fill="#f5deb3" stroke="#000000" points="310.5,-468 246.5,-468 246.5,-432 310.5,-432 310.5,-468"/>
<text text-anchor="middle" x="278.5" y="-446.2" font-family="Times,serif" font-size="16.00" fill="#0000ff">fwrite</text>
</g>
<!-- handle_callback&#45;&gt;fwrite -->
<g id="edge10" class="edge">
<title>handle_callback&#45;&gt;fwrite</title>
<path fill="none" stroke="#000000" d="M106.3387,-512.838C127.7279,-501.5051 156.4867,-487.1873 183,-477 200.0484,-470.4494 219.3518,-464.6945 236.12,-460.1993"/>
<polygon fill="#000000" stroke="#000000" points="237.4001,-463.4824 246.19,-457.5674 235.63,-456.7099 237.4001,-463.4824"/>
</g>
<!-- response_send -->
<g id="node12" class="node">
<title>response_send</title>
<polygon fill="#f5deb3" stroke="#000000" points="345.5,-414 211.5,-414 211.5,-378 345.5,-378 345.5,-414"/>
<text text-anchor="middle" x="278.5" y="-392.2" font-family="Times,serif" font-size="16.00" fill="#0000ff">response_send</text>
</g>
<!-- handle_callback&#45;&gt;response_send -->
<g id="edge11" class="edge">
<title>handle_callback&#45;&gt;response_send</title>
<path fill="none" stroke="#000000" d="M86.997,-512.8758C105.8581,-488.8194 142.3823,-446.6361 183,-423 188.9032,-419.5648 195.2681,-416.5461 201.8101,-413.8972"/>
<polygon fill="#000000" stroke="#000000" points="203.3495,-417.0583 211.4886,-410.2755 200.8961,-410.5023 203.3495,-417.0583"/>
</g>
<!-- LOG_DEBUG -->
<g id="node13" class="node">
<title>LOG_DEBUG</title>
<polygon fill="#f5deb3" stroke="#000000" points="339.5,-360 217.5,-360 217.5,-324 339.5,-324 339.5,-360"/>
<text text-anchor="middle" x="278.5" y="-338.2" font-family="Times,serif" font-size="16.00" fill="#0000ff">LOG_DEBUG</text>
</g>
<!-- handle_callback&#45;&gt;LOG_DEBUG -->
<g id="edge12" class="edge">
<title>handle_callback&#45;&gt;LOG_DEBUG</title>
<path fill="none" stroke="#000000" d="M80.7056,-512.8476C94.9961,-479.2186 130.1796,-407.1871 183,-369 190.4854,-363.5883 199.0238,-359.2591 207.8458,-355.7964"/>
<polygon fill="#000000" stroke="#000000" points="209.2423,-359.0147 217.4935,-352.3688 206.8988,-352.4186 209.2423,-359.0147"/>
</g>
<!-- open -->
<g id="node14" class="node">
<title>open</title>
<polygon fill="#f5deb3" stroke="#000000" points="306.5,-306 250.5,-306 250.5,-270 306.5,-270 306.5,-306"/>
<text text-anchor="middle" x="278.5" y="-284.2" font-family="Times,serif" font-size="16.00" fill="#0000ff">open</text>
</g>
<!-- handle_callback&#45;&gt;open -->
<g id="edge13" class="edge">
<title>handle_callback&#45;&gt;open</title>
<path fill="none" stroke="#000000" d="M77.4553,-512.8096C87.4582,-471.2313 117.7473,-368.6987 183,-315 199.0522,-301.7901 221.1872,-295.0345 240.1054,-291.5837"/>
<polygon fill="#000000" stroke="#000000" points="240.8934,-295.0027 250.2255,-289.9865 239.8021,-288.0883 240.8934,-295.0027"/>
</g>
<!-- close -->
<g id="node15" class="node">
<title>close</title>
<polygon fill="#f5deb3" stroke="#000000" points="307.5,-252 249.5,-252 249.5,-216 307.5,-216 307.5,-252"/>
<text text-anchor="middle" x="278.5" y="-230.2" font-family="Times,serif" font-size="16.00" fill="#0000ff">close</text>
</g>
<!-- handle_callback&#45;&gt;close -->
<g id="edge14" class="edge">
<title>handle_callback&#45;&gt;close</title>
<path fill="none" stroke="#000000" d="M75.4276,-512.7902C81.5512,-464.2783 105.0112,-330.8667 183,-261 198.4469,-247.1618 220.4806,-240.3676 239.4921,-237.0527"/>
<polygon fill="#000000" stroke="#000000" points="240.0167,-240.5133 249.3939,-235.5819 238.9881,-233.5893 240.0167,-240.5133"/>
</g>
<!-- lseek -->
<g id="node16" class="node">
<title>lseek</title>
<polygon fill="#f5deb3" stroke="#000000" points="307.5,-198 249.5,-198 249.5,-162 307.5,-162 307.5,-198"/>
<text text-anchor="middle" x="278.5" y="-176.2" font-family="Times,serif" font-size="16.00" fill="#0000ff">lseek</text>
</g>
<!-- handle_callback&#45;&gt;lseek -->
<g id="edge15" class="edge">
<title>handle_callback&#45;&gt;lseek</title>
<path fill="none" stroke="#000000" d="M77.2809,-512.9778C90.5231,-451.4687 136.5286,-251.1872 183,-207 198.0294,-192.7093 220.0381,-185.8882 239.1404,-182.6717"/>
<polygon fill="#000000" stroke="#000000" points="239.6888,-186.1291 249.1008,-181.2644 238.7094,-179.198 239.6888,-186.1291"/>
</g>
<!-- compareMd5sum  -->
<g id="node17" class="node">
<title>compareMd5sum </title>
<polygon fill="#f5deb3" stroke="#000000" points="359,-817 198,-817 198,-781 359,-781 359,-817"/>
<text text-anchor="middle" x="278.5" y="-795.2" font-family="Times,serif" font-size="16.00" fill="#0000ff">compareMd5sum </text>
</g>
<!-- handle_callback&#45;&gt;compareMd5sum  -->
<g id="edge16" class="edge">
<title>handle_callback&#45;&gt;compareMd5sum </title>
<path fill="none" stroke="#000000" d="M78.5494,-549.2454C90.5303,-589.6363 124.1655,-687.7861 183,-748 194.0988,-759.359 208.2743,-768.7755 222.2865,-776.2943"/>
<polygon fill="#000000" stroke="#000000" points="220.9387,-779.5359 231.437,-780.9626 224.1198,-773.3004 220.9387,-779.5359"/>
</g>
<!-- LOG_INFO -->
<g id="node24" class="node">
<title>LOG_INFO</title>
<polygon fill="#f5deb3" stroke="#000000" points="663,-620 559,-620 559,-584 663,-584 663,-620"/>
<text text-anchor="middle" x="611" y="-598.2" font-family="Times,serif" font-size="16.00" fill="#0000ff">LOG_INFO</text>
</g>
<!-- handle_callback&#45;&gt;LOG_INFO -->
<g id="edge31" class="edge">
<title>handle_callback&#45;&gt;LOG_INFO</title>
<path fill="none" stroke="#000000" d="M82.1325,-549.3043C97.5036,-579.4468 132.7852,-638.5266 183,-662 259.9015,-697.9484 289.7627,-672.4974 374,-662 434.5547,-654.4539 501.8451,-636.4591 549.2057,-622.132"/>
<polygon fill="#000000" stroke="#000000" points="550.4614,-625.4081 558.9999,-619.1356 548.4134,-618.7144 550.4614,-625.4081"/>
</g>
<!-- aiserver_start_eptz -->
<g id="node25" class="node">
<title>aiserver_start_eptz</title>
<polygon fill="#f5deb3" stroke="#000000" points="363,-144 194,-144 194,-108 363,-108 363,-144"/>
<text text-anchor="middle" x="278.5" y="-122.2" font-family="Times,serif" font-size="16.00" fill="#0000ff">aiserver_start_eptz</text>
</g>
<!-- handle_callback&#45;&gt;aiserver_start_eptz -->
<g id="edge32" class="edge">
<title>handle_callback&#45;&gt;aiserver_start_eptz</title>
<path fill="none" stroke="#000000" d="M76.3751,-512.8986C87.5241,-444.873 129.9288,-205.7309 183,-153 183.9625,-152.0437 184.9562,-151.1206 185.9782,-150.2297"/>
<polygon fill="#000000" stroke="#000000" points="188.3957,-152.793 194.3212,-144.0101 184.212,-147.1809 188.3957,-152.793"/>
</g>
<!-- aiserver_start_nn -->
<g id="node26" class="node">
<title>aiserver_start_nn</title>
<polygon fill="#f5deb3" stroke="#000000" points="357,-90 200,-90 200,-54 357,-54 357,-90"/>
<text text-anchor="middle" x="278.5" y="-68.2" font-family="Times,serif" font-size="16.00" fill="#0000ff">aiserver_start_nn</text>
</g>
<!-- handle_callback&#45;&gt;aiserver_start_nn -->
<g id="edge33" class="edge">
<title>handle_callback&#45;&gt;aiserver_start_nn</title>
<path fill="none" stroke="#000000" d="M75.6741,-512.9231C84.918,-438.961 123.2408,-160.4125 183,-99 185.5402,-96.3895 188.3122,-94.026 191.2603,-91.8865"/>
<polygon fill="#000000" stroke="#000000" points="193.3638,-94.6993 199.9887,-86.4312 189.6537,-88.7633 193.3638,-94.6993"/>
</g>
<!-- aiserver_set_nnstatus -->
<g id="node27" class="node">
<title>aiserver_set_nnstatus</title>
<polygon fill="#f5deb3" stroke="#000000" points="374,-36 183,-36 183,0 374,0 374,-36"/>
<text text-anchor="middle" x="278.5" y="-14.2" font-family="Times,serif" font-size="16.00" fill="#0000ff">aiserver_set_nnstatus</text>
</g>
<!-- handle_callback&#45;&gt;aiserver_set_nnstatus -->
<g id="edge34" class="edge">
<title>handle_callback&#45;&gt;aiserver_set_nnstatus</title>
<path fill="none" stroke="#000000" d="M75.1321,-512.8825C82.6591,-433.2489 116.5235,-115.1614 183,-45 183.8999,-44.0502 184.8304,-43.133 185.789,-42.2474"/>
<polygon fill="#000000" stroke="#000000" points="187.957,-44.9951 193.6437,-36.0557 183.6235,-39.4977 187.957,-44.9951"/>
</g>
<!-- compareMd5sum &#45;&gt;LOG_ERROR -->
<g id="edge29" class="edge">
<title>compareMd5sum &#45;&gt;LOG_ERROR</title>
<path fill="none" stroke="#000000" d="M334.1815,-817.1C386.5984,-836.6283 464.2792,-872.3304 514,-926 540.7733,-954.8997 522.122,-979.1644 550,-1007 550.945,-1007.9436 551.9287,-1008.857 552.9456,-1009.7409"/>
<polygon fill="#000000" stroke="#000000" points="551.1897,-1012.7968 561.3029,-1015.9551 555.3665,-1007.1795 551.1897,-1012.7968"/>
</g>
<!-- checkdata  -->
<g id="node18" class="node">
<title>checkdata </title>
<polygon fill="#f5deb3" stroke="#000000" points="514,-836 410,-836 410,-800 514,-800 514,-836"/>
<text text-anchor="middle" x="462" y="-814.2" font-family="Times,serif" font-size="16.00" fill="#0000ff">checkdata </text>
</g>
<!-- compareMd5sum &#45;&gt;checkdata  -->
<g id="edge17" class="edge">
<title>compareMd5sum &#45;&gt;checkdata </title>
<path fill="none" stroke="#000000" d="M359.2528,-807.3613C372.8338,-808.7675 386.7409,-810.2075 399.7607,-811.5556"/>
<polygon fill="#000000" stroke="#000000" points="399.6816,-815.066 409.9889,-812.6147 400.4026,-808.1033 399.6816,-815.066"/>
</g>
<!-- compareMd5sum &#45;&gt;LOG_INFO -->
<g id="edge30" class="edge">
<title>compareMd5sum &#45;&gt;LOG_INFO</title>
<path fill="none" stroke="#000000" d="M359.2483,-784.9604C409.1298,-772.6348 471.5041,-750.1443 514,-710 542.6379,-682.9469 522.122,-656.8356 550,-629 550.945,-628.0564 551.9287,-627.143 552.9456,-626.2591"/>
<polygon fill="#000000" stroke="#000000" points="555.3665,-628.8205 561.3029,-620.0449 551.1897,-623.2032 555.3665,-628.8205"/>
</g>
<!-- checkdata &#45;&gt;LOG_ERROR -->
<g id="edge19" class="edge">
<title>checkdata &#45;&gt;LOG_ERROR</title>
<path fill="none" stroke="#000000" d="M499.7274,-836.0779C505.1439,-840.0292 510.1692,-844.6598 514,-850 555.7278,-908.1698 504.445,-951.7761 550,-1007 550.6126,-1007.7426 551.2497,-1008.4655 551.9092,-1009.1691"/>
<polygon fill="#000000" stroke="#000000" points="549.8907,-1012.0531 559.7255,-1015.9936 554.4946,-1006.7801 549.8907,-1012.0531"/>
</g>
<!-- checkdata &#45;&gt;memset -->
<g id="edge24" class="edge">
<title>checkdata &#45;&gt;memset</title>
<path fill="none" stroke="#000000" d="M468.4419,-836.0797C488.3953,-892.0434 547.9626,-1058.8163 550,-1061 553.5628,-1064.8185 557.7631,-1068.1294 562.2658,-1070.9933"/>
<polygon fill="#000000" stroke="#000000" points="560.7686,-1074.1654 571.2094,-1075.9652 564.1699,-1068.0472 560.7686,-1074.1654"/>
</g>
<!-- checkdata &#45;&gt;memcpy -->
<g id="edge28" class="edge">
<title>checkdata &#45;&gt;memcpy</title>
<path fill="none" stroke="#000000" d="M498.697,-836.0816C504.3695,-840.0725 509.7464,-844.715 514,-850 544.4052,-887.7774 517.1169,-917.3587 550,-953 553.0873,-956.3463 556.6649,-959.3015 560.5094,-961.9069"/>
<polygon fill="#000000" stroke="#000000" points="558.8733,-965.0052 569.2654,-967.0678 562.4277,-958.9748 558.8733,-965.0052"/>
</g>
<!-- checkdata &#45;&gt;fopen -->
<g id="edge18" class="edge">
<title>checkdata &#45;&gt;fopen</title>
<path fill="none" stroke="#000000" d="M498.697,-799.9184C504.3695,-795.9275 509.7464,-791.285 514,-786 544.4052,-748.2226 517.1169,-718.6413 550,-683 555.577,-676.9552 562.754,-672.1863 570.2141,-668.4507"/>
<polygon fill="#000000" stroke="#000000" points="571.983,-671.4957 579.7159,-664.2533 569.1544,-665.0926 571.983,-671.4957"/>
</g>
<!-- checkdata &#45;&gt;fclose -->
<g id="edge26" class="edge">
<title>checkdata &#45;&gt;fclose</title>
<path fill="none" stroke="#000000" d="M468.4419,-799.9203C488.3953,-743.9566 547.9626,-577.1837 550,-575 555.4441,-569.1651 562.377,-564.5152 569.6027,-560.8351"/>
<polygon fill="#000000" stroke="#000000" points="571.1458,-563.9787 578.8218,-556.676 568.2672,-557.5979 571.1458,-563.9787"/>
</g>
<!-- fseek -->
<g id="node19" class="node">
<title>fseek</title>
<polygon fill="#f5deb3" stroke="#000000" points="640.5,-890 581.5,-890 581.5,-854 640.5,-854 640.5,-890"/>
<text text-anchor="middle" x="611" y="-868.2" font-family="Times,serif" font-size="16.00" fill="#0000ff">fseek</text>
</g>
<!-- checkdata &#45;&gt;fseek -->
<g id="edge20" class="edge">
<title>checkdata &#45;&gt;fseek</title>
<path fill="none" stroke="#000000" d="M512.0293,-836.1314C531.5218,-843.1958 553.5285,-851.1714 571.8323,-857.805"/>
<polygon fill="#000000" stroke="#000000" points="570.712,-861.1217 581.3062,-861.2385 573.0972,-854.5406 570.712,-861.1217"/>
</g>
<!-- MD5_Init -->
<g id="node20" class="node">
<title>MD5_Init</title>
<polygon fill="#f5deb3" stroke="#000000" points="657,-836 565,-836 565,-800 657,-800 657,-836"/>
<text text-anchor="middle" x="611" y="-814.2" font-family="Times,serif" font-size="16.00" fill="#0000ff">MD5_Init</text>
</g>
<!-- checkdata &#45;&gt;MD5_Init -->
<g id="edge21" class="edge">
<title>checkdata &#45;&gt;MD5_Init</title>
<path fill="none" stroke="#000000" d="M514.113,-818C527.0918,-818 541.07,-818 554.2595,-818"/>
<polygon fill="#000000" stroke="#000000" points="554.6341,-821.5001 564.634,-818 554.634,-814.5001 554.6341,-821.5001"/>
</g>
<!-- fread -->
<g id="node21" class="node">
<title>fread</title>
<polygon fill="#f5deb3" stroke="#000000" points="640.5,-782 581.5,-782 581.5,-746 640.5,-746 640.5,-782"/>
<text text-anchor="middle" x="611" y="-760.2" font-family="Times,serif" font-size="16.00" fill="#0000ff">fread</text>
</g>
<!-- checkdata &#45;&gt;fread -->
<g id="edge22" class="edge">
<title>checkdata &#45;&gt;fread</title>
<path fill="none" stroke="#000000" d="M512.0293,-799.8686C531.5218,-792.8042 553.5285,-784.8286 571.8323,-778.195"/>
<polygon fill="#000000" stroke="#000000" points="573.0972,-781.4594 581.3062,-774.7615 570.712,-774.8783 573.0972,-781.4594"/>
</g>
<!-- MD5_Update -->
<g id="node22" class="node">
<title>MD5_Update</title>
<polygon fill="#f5deb3" stroke="#000000" points="672,-728 550,-728 550,-692 672,-692 672,-728"/>
<text text-anchor="middle" x="611" y="-706.2" font-family="Times,serif" font-size="16.00" fill="#0000ff">MD5_Update</text>
</g>
<!-- checkdata &#45;&gt;MD5_Update -->
<g id="edge23" class="edge">
<title>checkdata &#45;&gt;MD5_Update</title>
<path fill="none" stroke="#000000" d="M495.8196,-799.8311C502.1817,-795.6981 508.5426,-791.0274 514,-786 533.8755,-767.6905 528.9352,-753.9277 550,-737 551.5234,-735.7758 553.111,-734.5957 554.7478,-733.4591"/>
<polygon fill="#000000" stroke="#000000" points="556.6425,-736.4024 563.2711,-728.1373 552.9351,-730.4647 556.6425,-736.4024"/>
</g>
<!-- MD5_Final -->
<g id="node23" class="node">
<title>MD5_Final</title>
<polygon fill="#f5deb3" stroke="#000000" points="664,-944 558,-944 558,-908 664,-908 664,-944"/>
<text text-anchor="middle" x="611" y="-922.2" font-family="Times,serif" font-size="16.00" fill="#0000ff">MD5_Final</text>
</g>
<!-- checkdata &#45;&gt;MD5_Final -->
<g id="edge25" class="edge">
<title>checkdata &#45;&gt;MD5_Final</title>
<path fill="none" stroke="#000000" d="M495.8196,-836.1689C502.1817,-840.3019 508.5426,-844.9726 514,-850 533.8755,-868.3095 528.9352,-882.0723 550,-899 551.5234,-900.2242 553.111,-901.4043 554.7478,-902.5409"/>
<polygon fill="#000000" stroke="#000000" points="552.9351,-905.5353 563.2711,-907.8627 556.6425,-899.5976 552.9351,-905.5353"/>
</g>
<!-- checkdata &#45;&gt;LOG_INFO -->
<g id="edge27" class="edge">
<title>checkdata &#45;&gt;LOG_INFO</title>
<path fill="none" stroke="#000000" d="M499.7274,-799.9221C505.1439,-795.9708 510.1692,-791.3402 514,-786 555.7278,-727.8302 504.445,-684.2239 550,-629 550.6126,-628.2574 551.2497,-627.5345 551.9092,-626.8309"/>
<polygon fill="#000000" stroke="#000000" points="554.4946,-629.2199 559.7255,-620.0064 549.8907,-623.9469 554.4946,-629.2199"/>
</g>
</g>
</svg>
