<?xml version="1.0" encoding="UTF-8" standalone="no"?>
<!DOCTYPE svg PUBLIC "-//W3C//DTD SVG 1.1//EN"
 "http://www.w3.org/Graphics/SVG/1.1/DTD/svg11.dtd">
<!-- Generated by graphviz version 2.40.1 (20161225.0304)
 -->
<!-- Title: G Pages: 1 -->
<svg width="270pt" height="206pt"
 viewBox="0.00 0.00 270.00 206.00" xmlns="http://www.w3.org/2000/svg" xmlns:xlink="http://www.w3.org/1999/xlink">
<g id="graph0" class="graph" transform="scale(1 1) rotate(0) translate(4 202)">
<title>G</title>
<polygon fill="#ffffff" stroke="transparent" points="-4,4 -4,-202 266,-202 266,4 -4,4"/>
<!-- main -->
<g id="node1" class="node">
<title>main</title>
<polygon fill="#f5deb3" stroke="#000000" points="57,-117 0,-117 0,-81 57,-81 57,-117"/>
<text text-anchor="middle" x="28.5" y="-95.2" font-family="Times,serif" font-size="16.00" fill="#0000ff">main</text>
</g>
<!-- ShmControl -->
<g id="node2" class="node">
<title>ShmControl</title>
<polygon fill="#f5deb3" stroke="#000000" points="234,-198 121,-198 121,-162 234,-162 234,-198"/>
<text text-anchor="middle" x="177.5" y="-176.2" font-family="Times,serif" font-size="16.00" fill="#0000ff">ShmControl</text>
</g>
<!-- main&#45;&gt;ShmControl -->
<g id="edge1" class="edge">
<title>main&#45;&gt;ShmControl</title>
<path fill="none" stroke="#000000" d="M46.2606,-117.159C58.4836,-128.7813 75.5997,-143.4229 93,-153 98.8016,-156.1932 105.0383,-159.0755 111.4003,-161.6611"/>
<polygon fill="#000000" stroke="#000000" points="110.184,-164.9431 120.7747,-165.2389 112.68,-158.4032 110.184,-164.9431"/>
</g>
<!-- rndis_dev_new -->
<g id="node3" class="node">
<title>rndis_dev_new</title>
<polygon fill="#f5deb3" stroke="#000000" points="245,-144 110,-144 110,-108 245,-108 245,-144"/>
<text text-anchor="middle" x="177.5" y="-122.2" font-family="Times,serif" font-size="16.00" fill="#0000ff">rndis_dev_new</text>
</g>
<!-- main&#45;&gt;rndis_dev_new -->
<g id="edge2" class="edge">
<title>main&#45;&gt;rndis_dev_new</title>
<path fill="none" stroke="#000000" d="M57.2287,-104.2059C69.5766,-106.4434 84.6635,-109.1773 99.9227,-111.9424"/>
<polygon fill="#000000" stroke="#000000" points="99.4843,-115.4198 109.9481,-113.7591 100.7324,-108.532 99.4843,-115.4198"/>
</g>
<!-- rndis_initialize_tcp -->
<g id="node4" class="node">
<title>rndis_initialize_tcp</title>
<polygon fill="#f5deb3" stroke="#000000" points="262,-90 93,-90 93,-54 262,-54 262,-90"/>
<text text-anchor="middle" x="177.5" y="-68.2" font-family="Times,serif" font-size="16.00" fill="#0000ff">rndis_initialize_tcp</text>
</g>
<!-- main&#45;&gt;rndis_initialize_tcp -->
<g id="edge3" class="edge">
<title>main&#45;&gt;rndis_initialize_tcp</title>
<path fill="none" stroke="#000000" d="M57.2287,-93.7941C64.8674,-92.4099 73.5542,-90.8358 82.6816,-89.1819"/>
<polygon fill="#000000" stroke="#000000" points="83.5143,-92.5881 92.7299,-87.361 82.2661,-85.7002 83.5143,-92.5881"/>
</g>
<!-- sleep -->
<g id="node5" class="node">
<title>sleep</title>
<polygon fill="#f5deb3" stroke="#000000" points="206.5,-36 148.5,-36 148.5,0 206.5,0 206.5,-36"/>
<text text-anchor="middle" x="177.5" y="-14.2" font-family="Times,serif" font-size="16.00" fill="#0000ff">sleep</text>
</g>
<!-- main&#45;&gt;sleep -->
<g id="edge4" class="edge">
<title>main&#45;&gt;sleep</title>
<path fill="none" stroke="#000000" d="M46.2606,-80.841C58.4836,-69.2187 75.5997,-54.5771 93,-45 107.0319,-37.2769 123.6087,-31.3728 138.3468,-27.0843"/>
<polygon fill="#000000" stroke="#000000" points="139.4902,-30.3998 148.2025,-24.371 137.6322,-23.6509 139.4902,-30.3998"/>
</g>
</g>
</svg>
