<?xml version="1.0" encoding="UTF-8" standalone="no"?>
<!DOCTYPE svg PUBLIC "-//W3C//DTD SVG 1.1//EN"
 "http://www.w3.org/Graphics/SVG/1.1/DTD/svg11.dtd">
<!-- Generated by graphviz version 2.40.1 (20161225.0304)
 -->
<!-- Title: G Pages: 1 -->
<svg width="1288pt" height="660pt"
 viewBox="0.00 0.00 1288.00 660.00" xmlns="http://www.w3.org/2000/svg" xmlns:xlink="http://www.w3.org/1999/xlink">
<g id="graph0" class="graph" transform="scale(1 1) rotate(0) translate(4 656)">
<title>G</title>
<polygon fill="#ffffff" stroke="transparent" points="-4,4 -4,-656 1284,-656 1284,4 -4,4"/>
<!-- rndis_initialize_tcp -->
<g id="node1" class="node">
<title>rndis_initialize_tcp</title>
<polygon fill="#f5deb3" stroke="#000000" points="169,-510 0,-510 0,-474 169,-474 169,-510"/>
<text text-anchor="middle" x="84.5" y="-488.2" font-family="Times,serif" font-size="16.00" fill="#0000ff">rndis_initialize_tcp</text>
</g>
<!-- cg_mutex_new -->
<g id="node2" class="node">
<title>cg_mutex_new</title>
<polygon fill="#f5deb3" stroke="#000000" points="377.5,-652 243.5,-652 243.5,-616 377.5,-616 377.5,-652"/>
<text text-anchor="middle" x="310.5" y="-630.2" font-family="Times,serif" font-size="16.00" fill="#0000ff">cg_mutex_new</text>
</g>
<!-- rndis_initialize_tcp&#45;&gt;cg_mutex_new -->
<g id="edge1" class="edge">
<title>rndis_initialize_tcp&#45;&gt;cg_mutex_new</title>
<path fill="none" stroke="#000000" d="M99.7527,-510.2912C120.9616,-534.6019 161.6666,-577.3505 205,-602 213.9513,-607.0918 223.8003,-611.4568 233.7741,-615.1757"/>
<polygon fill="#000000" stroke="#000000" points="232.7549,-618.5273 243.3497,-618.5457 235.0788,-611.9243 232.7549,-618.5273"/>
</g>
<!-- rndis_start_tcp_threads  -->
<g id="node3" class="node">
<title>rndis_start_tcp_threads </title>
<polygon fill="#f5deb3" stroke="#000000" points="416,-464 205,-464 205,-428 416,-428 416,-464"/>
<text text-anchor="middle" x="310.5" y="-442.2" font-family="Times,serif" font-size="16.00" fill="#0000ff">rndis_start_tcp_threads </text>
</g>
<!-- rndis_initialize_tcp&#45;&gt;rndis_start_tcp_threads  -->
<g id="edge2" class="edge">
<title>rndis_initialize_tcp&#45;&gt;rndis_start_tcp_threads </title>
<path fill="none" stroke="#000000" d="M169.297,-474.7404C183.105,-471.93 197.5131,-468.9973 211.6228,-466.1254"/>
<polygon fill="#000000" stroke="#000000" points="212.7303,-469.4719 221.8313,-464.0476 211.3341,-462.6125 212.7303,-469.4719"/>
</g>
<!-- LOG_INFO -->
<g id="node4" class="node">
<title>LOG_INFO</title>
<polygon fill="#f5deb3" stroke="#000000" points="1142,-630 1038,-630 1038,-594 1142,-594 1142,-630"/>
<text text-anchor="middle" x="1090" y="-608.2" font-family="Times,serif" font-size="16.00" fill="#0000ff">LOG_INFO</text>
</g>
<!-- rndis_initialize_tcp&#45;&gt;LOG_INFO -->
<g id="edge40" class="edge">
<title>rndis_initialize_tcp&#45;&gt;LOG_INFO</title>
<path fill="none" stroke="#000000" d="M155.8116,-510.0232C229.4803,-527.9131 348.0303,-554.6752 452,-569 661.5611,-597.873 912.6321,-607.5871 1027.312,-610.667"/>
<polygon fill="#000000" stroke="#000000" points="1027.5604,-614.1746 1037.6482,-610.9364 1027.7429,-607.1769 1027.5604,-614.1746"/>
</g>
<!-- usleep -->
<g id="node13" class="node">
<title>usleep</title>
<polygon fill="#f5deb3" stroke="#000000" points="1124,-90 1056,-90 1056,-54 1124,-54 1124,-90"/>
<text text-anchor="middle" x="1090" y="-68.2" font-family="Times,serif" font-size="16.00" fill="#0000ff">usleep</text>
</g>
<!-- rndis_initialize_tcp&#45;&gt;usleep -->
<g id="edge39" class="edge">
<title>rndis_initialize_tcp&#45;&gt;usleep</title>
<path fill="none" stroke="#000000" d="M108.1601,-473.9133C164.7283,-431.4111 313.4307,-324.0185 452,-261 664.9518,-164.1539 940.2225,-102.2603 1045.9646,-80.6225"/>
<polygon fill="#000000" stroke="#000000" points="1046.8514,-84.014 1055.9556,-78.595 1045.4592,-77.1538 1046.8514,-84.014"/>
</g>
<!-- rndis_start_tcp_threads &#45;&gt;LOG_INFO -->
<g id="edge3" class="edge">
<title>rndis_start_tcp_threads &#45;&gt;LOG_INFO</title>
<path fill="none" stroke="#000000" d="M416.2969,-462.488C496.586,-475.4546 609.5658,-494.674 708,-515 818.1109,-537.7372 845.5195,-544.4474 954,-574 970.142,-578.3974 973.9219,-580.3744 990,-585 1002.2046,-588.5112 1015.2857,-592.1399 1027.8309,-595.554"/>
<polygon fill="#000000" stroke="#000000" points="1027.1828,-599.0045 1037.75,-598.2398 1029.0123,-592.2478 1027.1828,-599.0045"/>
</g>
<!-- cg_thread_new -->
<g id="node5" class="node">
<title>cg_thread_new</title>
<polygon fill="#f5deb3" stroke="#000000" points="648.5,-306 511.5,-306 511.5,-270 648.5,-270 648.5,-306"/>
<text text-anchor="middle" x="580" y="-284.2" font-family="Times,serif" font-size="16.00" fill="#0000ff">cg_thread_new</text>
</g>
<!-- rndis_start_tcp_threads &#45;&gt;cg_thread_new -->
<g id="edge4" class="edge">
<title>rndis_start_tcp_threads &#45;&gt;cg_thread_new</title>
<path fill="none" stroke="#000000" d="M324.4213,-427.9263C347.5914,-399.1965 396.9911,-343.4558 452,-315 467.1763,-307.1494 484.4876,-301.5811 501.3682,-297.6319"/>
<polygon fill="#000000" stroke="#000000" points="502.2085,-301.031 511.2381,-295.4886 500.7231,-294.1905 502.2085,-301.031"/>
</g>
<!-- rndis_start_recv_thread  -->
<g id="node6" class="node">
<title>rndis_start_recv_thread </title>
<polygon fill="#f5deb3" stroke="#000000" points="686,-414 474,-414 474,-378 686,-378 686,-414"/>
<text text-anchor="middle" x="580" y="-392.2" font-family="Times,serif" font-size="16.00" fill="#0000ff">rndis_start_recv_thread </text>
</g>
<!-- rndis_start_tcp_threads &#45;&gt;rndis_start_recv_thread  -->
<g id="edge5" class="edge">
<title>rndis_start_tcp_threads &#45;&gt;rndis_start_recv_thread </title>
<path fill="none" stroke="#000000" d="M407.7957,-427.9489C428.8813,-424.0369 451.2961,-419.8783 472.7407,-415.8997"/>
<polygon fill="#000000" stroke="#000000" points="473.6534,-419.2902 482.8471,-414.0247 472.3764,-412.4076 473.6534,-419.2902"/>
</g>
<!-- rndis_start_recv_thread_data  -->
<g id="node22" class="node">
<title>rndis_start_recv_thread_data </title>
<polygon fill="#f5deb3" stroke="#000000" points="708,-360 452,-360 452,-324 708,-324 708,-360"/>
<text text-anchor="middle" x="580" y="-338.2" font-family="Times,serif" font-size="16.00" fill="#0000ff">rndis_start_recv_thread_data </text>
</g>
<!-- rndis_start_tcp_threads &#45;&gt;rndis_start_recv_thread_data  -->
<g id="edge22" class="edge">
<title>rndis_start_tcp_threads &#45;&gt;rndis_start_recv_thread_data </title>
<path fill="none" stroke="#000000" d="M338.0791,-427.8366C365.7957,-410.3574 410.2752,-384.3786 452,-369 457.9435,-366.8094 464.1112,-364.7757 470.3837,-362.8906"/>
<polygon fill="#000000" stroke="#000000" points="471.659,-366.1662 480.3098,-360.0495 469.7327,-359.4364 471.659,-366.1662"/>
</g>
<!-- tcp_socket_new -->
<g id="node25" class="node">
<title>tcp_socket_new</title>
<polygon fill="#f5deb3" stroke="#000000" points="651.5,-560 508.5,-560 508.5,-524 651.5,-524 651.5,-560"/>
<text text-anchor="middle" x="580" y="-538.2" font-family="Times,serif" font-size="16.00" fill="#0000ff">tcp_socket_new</text>
</g>
<!-- rndis_start_tcp_threads &#45;&gt;tcp_socket_new -->
<g id="edge38" class="edge">
<title>rndis_start_tcp_threads &#45;&gt;tcp_socket_new</title>
<path fill="none" stroke="#000000" d="M345.832,-464.1288C374.0266,-478.0659 414.8222,-497.063 452,-510 466.7296,-515.1255 482.6782,-519.7882 498.1557,-523.8717"/>
<polygon fill="#000000" stroke="#000000" points="497.6839,-527.3644 508.241,-526.4705 499.4307,-520.5858 497.6839,-527.3644"/>
</g>
<!-- cg_thread_setaction -->
<g id="node7" class="node">
<title>cg_thread_setaction</title>
<polygon fill="#f5deb3" stroke="#000000" points="938,-360 760,-360 760,-324 938,-324 938,-360"/>
<text text-anchor="middle" x="849" y="-338.2" font-family="Times,serif" font-size="16.00" fill="#0000ff">cg_thread_setaction</text>
</g>
<!-- rndis_start_recv_thread &#45;&gt;cg_thread_setaction -->
<g id="edge6" class="edge">
<title>rndis_start_recv_thread &#45;&gt;cg_thread_setaction</title>
<path fill="none" stroke="#000000" d="M669.9471,-377.9437C695.5439,-372.8053 723.5677,-367.1797 749.6872,-361.9364"/>
<polygon fill="#000000" stroke="#000000" points="750.48,-365.3472 759.5955,-359.9474 749.1022,-358.4841 750.48,-365.3472"/>
</g>
<!-- rndis_do_tcp_recv  -->
<g id="node8" class="node">
<title>rndis_do_tcp_recv </title>
<polygon fill="#f5deb3" stroke="#000000" points="932.5,-468 765.5,-468 765.5,-432 932.5,-432 932.5,-468"/>
<text text-anchor="middle" x="849" y="-446.2" font-family="Times,serif" font-size="16.00" fill="#0000ff">rndis_do_tcp_recv </text>
</g>
<!-- rndis_start_recv_thread &#45;&gt;rndis_do_tcp_recv  -->
<g id="edge7" class="edge">
<title>rndis_start_recv_thread &#45;&gt;rndis_do_tcp_recv </title>
<path fill="none" stroke="#000000" d="M669.9471,-414.0563C697.425,-419.5723 727.6998,-425.6498 755.4133,-431.2131"/>
<polygon fill="#000000" stroke="#000000" points="755.0045,-434.7008 765.4977,-433.2375 756.3822,-427.8377 755.0045,-434.7008"/>
</g>
<!-- cg_thread_setuserdata -->
<g id="node20" class="node">
<title>cg_thread_setuserdata</title>
<polygon fill="#f5deb3" stroke="#000000" points="948,-306 750,-306 750,-270 948,-270 948,-306"/>
<text text-anchor="middle" x="849" y="-284.2" font-family="Times,serif" font-size="16.00" fill="#0000ff">cg_thread_setuserdata</text>
</g>
<!-- rndis_start_recv_thread &#45;&gt;cg_thread_setuserdata -->
<g id="edge20" class="edge">
<title>rndis_start_recv_thread &#45;&gt;cg_thread_setuserdata</title>
<path fill="none" stroke="#000000" d="M686.12,-380.6102C693.8338,-377.4145 701.2306,-373.5851 708,-369 731.8819,-352.8243 720.478,-331.6948 744,-315 746.0817,-313.5225 748.2376,-312.1258 750.4539,-310.8054"/>
<polygon fill="#000000" stroke="#000000" points="752.1103,-313.8886 759.273,-306.0818 748.8053,-307.718 752.1103,-313.8886"/>
</g>
<!-- cg_thread_start -->
<g id="node21" class="node">
<title>cg_thread_start</title>
<polygon fill="#f5deb3" stroke="#000000" points="920,-414 778,-414 778,-378 920,-378 920,-414"/>
<text text-anchor="middle" x="849" y="-392.2" font-family="Times,serif" font-size="16.00" fill="#0000ff">cg_thread_start</text>
</g>
<!-- rndis_start_recv_thread &#45;&gt;cg_thread_start -->
<g id="edge21" class="edge">
<title>rndis_start_recv_thread &#45;&gt;cg_thread_start</title>
<path fill="none" stroke="#000000" d="M686.3159,-396C713.4119,-396 742.1058,-396 767.7271,-396"/>
<polygon fill="#000000" stroke="#000000" points="767.7569,-399.5001 777.7569,-396 767.7568,-392.5001 767.7569,-399.5001"/>
</g>
<!-- rndis_do_tcp_recv &#45;&gt;LOG_INFO -->
<g id="edge19" class="edge">
<title>rndis_do_tcp_recv &#45;&gt;LOG_INFO</title>
<path fill="none" stroke="#000000" d="M932.5432,-467.1442C940.3983,-471.1119 947.7461,-475.9939 954,-482 988.976,-515.59 954.4893,-551.9758 990,-585 1000.4375,-594.7067 1013.998,-600.9909 1027.7471,-605.0416"/>
<polygon fill="#000000" stroke="#000000" points="1027.1933,-608.5129 1037.7499,-607.6133 1028.9364,-601.7334 1027.1933,-608.5129"/>
</g>
<!-- cg_thread_getuserdata -->
<g id="node9" class="node">
<title>cg_thread_getuserdata</title>
<polygon fill="#f5deb3" stroke="#000000" points="1190,-522 990,-522 990,-486 1190,-486 1190,-522"/>
<text text-anchor="middle" x="1090" y="-500.2" font-family="Times,serif" font-size="16.00" fill="#0000ff">cg_thread_getuserdata</text>
</g>
<!-- rndis_do_tcp_recv &#45;&gt;cg_thread_getuserdata -->
<g id="edge8" class="edge">
<title>rndis_do_tcp_recv &#45;&gt;cg_thread_getuserdata</title>
<path fill="none" stroke="#000000" d="M929.5846,-468.0563C952.0942,-473.0999 976.6988,-478.613 999.7286,-483.7732"/>
<polygon fill="#000000" stroke="#000000" points="998.968,-487.1895 1009.4914,-485.9607 1000.4986,-480.3589 998.968,-487.1895"/>
</g>
<!-- prctl -->
<g id="node10" class="node">
<title>prctl</title>
<polygon fill="#f5deb3" stroke="#000000" points="1117,-468 1063,-468 1063,-432 1117,-432 1117,-468"/>
<text text-anchor="middle" x="1090" y="-446.2" font-family="Times,serif" font-size="16.00" fill="#0000ff">prctl</text>
</g>
<!-- rndis_do_tcp_recv &#45;&gt;prctl -->
<g id="edge9" class="edge">
<title>rndis_do_tcp_recv &#45;&gt;prctl</title>
<path fill="none" stroke="#000000" d="M932.6137,-450C973.5316,-450 1020.7294,-450 1052.6842,-450"/>
<polygon fill="#000000" stroke="#000000" points="1052.9057,-453.5001 1062.9056,-450 1052.9056,-446.5001 1052.9057,-453.5001"/>
</g>
<!-- cg_thread_isrunnable -->
<g id="node11" class="node">
<title>cg_thread_isrunnable</title>
<polygon fill="#f5deb3" stroke="#000000" points="1185.5,-414 994.5,-414 994.5,-378 1185.5,-378 1185.5,-414"/>
<text text-anchor="middle" x="1090" y="-392.2" font-family="Times,serif" font-size="16.00" fill="#0000ff">cg_thread_isrunnable</text>
</g>
<!-- rndis_do_tcp_recv &#45;&gt;cg_thread_isrunnable -->
<g id="edge10" class="edge">
<title>rndis_do_tcp_recv &#45;&gt;cg_thread_isrunnable</title>
<path fill="none" stroke="#000000" d="M929.5846,-431.9437C952.0942,-426.9001 976.6988,-421.387 999.7286,-416.2268"/>
<polygon fill="#000000" stroke="#000000" points="1000.4986,-419.6411 1009.4914,-414.0393 998.968,-412.8105 1000.4986,-419.6411"/>
</g>
<!-- uvc_get_socket -->
<g id="node12" class="node">
<title>uvc_get_socket</title>
<polygon fill="#f5deb3" stroke="#000000" points="1159,-576 1021,-576 1021,-540 1159,-540 1159,-576"/>
<text text-anchor="middle" x="1090" y="-554.2" font-family="Times,serif" font-size="16.00" fill="#0000ff">uvc_get_socket</text>
</g>
<!-- rndis_do_tcp_recv &#45;&gt;uvc_get_socket -->
<g id="edge11" class="edge">
<title>rndis_do_tcp_recv &#45;&gt;uvc_get_socket</title>
<path fill="none" stroke="#000000" d="M928.4461,-468.1129C937.4827,-471.913 946.2256,-476.4909 954,-482 976.0488,-497.6244 967.7032,-515.7316 990,-531 996.5928,-535.5146 1003.9096,-539.2754 1011.5004,-542.4081"/>
<polygon fill="#000000" stroke="#000000" points="1010.2732,-545.6859 1020.8653,-545.9262 1012.735,-539.133 1010.2732,-545.6859"/>
</g>
<!-- rndis_do_tcp_recv &#45;&gt;usleep -->
<g id="edge12" class="edge">
<title>rndis_do_tcp_recv &#45;&gt;usleep</title>
<path fill="none" stroke="#000000" d="M932.5808,-439.0039C940.6846,-435.0361 948.0775,-429.8227 954,-423 1048.977,-313.5862 895.6824,-208.9827 990,-99 1003.6571,-83.0745 1025.6346,-76.0568 1045.5127,-73.1353"/>
<polygon fill="#000000" stroke="#000000" points="1046.1322,-76.587 1055.661,-71.9555 1045.3237,-69.6338 1046.1322,-76.587"/>
</g>
<!-- malloc -->
<g id="node14" class="node">
<title>malloc</title>
<polygon fill="#f5deb3" stroke="#000000" points="1125.5,-360 1054.5,-360 1054.5,-324 1125.5,-324 1125.5,-360"/>
<text text-anchor="middle" x="1090" y="-338.2" font-family="Times,serif" font-size="16.00" fill="#0000ff">malloc</text>
</g>
<!-- rndis_do_tcp_recv &#45;&gt;malloc -->
<g id="edge13" class="edge">
<title>rndis_do_tcp_recv &#45;&gt;malloc</title>
<path fill="none" stroke="#000000" d="M932.6675,-434.6462C940.2253,-431.4668 947.4766,-427.63 954,-423 977.522,-406.3052 966.5788,-385.8359 990,-369 1005.8931,-357.5756 1026.3486,-350.985 1044.614,-347.1831"/>
<polygon fill="#000000" stroke="#000000" points="1045.3023,-350.6152 1054.4932,-345.3448 1044.0217,-343.7333 1045.3023,-350.6152"/>
</g>
<!-- memset -->
<g id="node15" class="node">
<title>memset</title>
<polygon fill="#f5deb3" stroke="#000000" points="1129.5,-306 1050.5,-306 1050.5,-270 1129.5,-270 1129.5,-306"/>
<text text-anchor="middle" x="1090" y="-284.2" font-family="Times,serif" font-size="16.00" fill="#0000ff">memset</text>
</g>
<!-- rndis_do_tcp_recv &#45;&gt;memset -->
<g id="edge14" class="edge">
<title>rndis_do_tcp_recv &#45;&gt;memset</title>
<path fill="none" stroke="#000000" d="M932.5225,-437.1011C940.3816,-433.4569 947.7359,-428.8399 954,-423 991.0082,-388.4979 953.1999,-349.7239 990,-315 1003.4482,-302.3105 1022.2253,-295.4587 1039.8813,-291.8023"/>
<polygon fill="#000000" stroke="#000000" points="1040.8592,-295.1839 1050.0985,-289.9988 1039.6424,-288.2905 1040.8592,-295.1839"/>
</g>
<!-- tcp_data_accept -->
<g id="node16" class="node">
<title>tcp_data_accept</title>
<polygon fill="#f5deb3" stroke="#000000" points="1163,-252 1017,-252 1017,-216 1163,-216 1163,-252"/>
<text text-anchor="middle" x="1090" y="-230.2" font-family="Times,serif" font-size="16.00" fill="#0000ff">tcp_data_accept</text>
</g>
<!-- rndis_do_tcp_recv &#45;&gt;tcp_data_accept -->
<g id="edge15" class="edge">
<title>rndis_do_tcp_recv &#45;&gt;tcp_data_accept</title>
<path fill="none" stroke="#000000" d="M932.6384,-437.9866C940.5749,-434.186 947.9142,-429.2902 954,-423 1005.2855,-369.9924 939.0341,-314.3149 990,-261 995.0831,-255.6826 1001.095,-251.3752 1007.6091,-247.8907"/>
<polygon fill="#000000" stroke="#000000" points="1009.173,-251.0235 1016.7633,-243.6317 1006.2201,-244.6768 1009.173,-251.0235"/>
</g>
<!-- cmd_receive -->
<g id="node17" class="node">
<title>cmd_receive</title>
<polygon fill="#f5deb3" stroke="#000000" points="1148,-198 1032,-198 1032,-162 1148,-162 1148,-198"/>
<text text-anchor="middle" x="1090" y="-176.2" font-family="Times,serif" font-size="16.00" fill="#0000ff">cmd_receive</text>
</g>
<!-- rndis_do_tcp_recv &#45;&gt;cmd_receive -->
<g id="edge16" class="edge">
<title>rndis_do_tcp_recv &#45;&gt;cmd_receive</title>
<path fill="none" stroke="#000000" d="M932.7267,-438.4334C940.6983,-434.5562 948.0211,-429.5201 954,-423 1019.7773,-351.2689 924.6551,-279.1252 990,-207 998.5267,-197.5885 1009.9591,-191.3149 1022.0451,-187.1641"/>
<polygon fill="#000000" stroke="#000000" points="1023.2369,-190.4616 1031.835,-184.271 1021.253,-183.7486 1023.2369,-190.4616"/>
</g>
<!-- rndis_tcp_stream_free  -->
<g id="node18" class="node">
<title>rndis_tcp_stream_free </title>
<polygon fill="#f5deb3" stroke="#000000" points="1190,-144 990,-144 990,-108 1190,-108 1190,-144"/>
<text text-anchor="middle" x="1090" y="-122.2" font-family="Times,serif" font-size="16.00" fill="#0000ff">rndis_tcp_stream_free </text>
</g>
<!-- rndis_do_tcp_recv &#45;&gt;rndis_tcp_stream_free  -->
<g id="edge17" class="edge">
<title>rndis_do_tcp_recv &#45;&gt;rndis_tcp_stream_free </title>
<path fill="none" stroke="#000000" d="M932.6874,-438.751C940.7186,-434.8222 948.0657,-429.6871 954,-423 1034.3556,-332.4518 910.1902,-244.0296 990,-153 990.7409,-152.1549 991.5053,-151.335 992.2915,-150.5395"/>
<polygon fill="#000000" stroke="#000000" points="994.5892,-153.1799 999.9143,-144.0205 990.0396,-147.86 994.5892,-153.1799"/>
</g>
<!-- free -->
<g id="node19" class="node">
<title>free</title>
<polygon fill="#f5deb3" stroke="#000000" points="1280,-144 1226,-144 1226,-108 1280,-108 1280,-144"/>
<text text-anchor="middle" x="1253" y="-122.2" font-family="Times,serif" font-size="16.00" fill="#0000ff">free</text>
</g>
<!-- rndis_tcp_stream_free &#45;&gt;free -->
<g id="edge18" class="edge">
<title>rndis_tcp_stream_free &#45;&gt;free</title>
<path fill="none" stroke="#000000" d="M1190.4461,-126C1199.3643,-126 1207.962,-126 1215.7793,-126"/>
<polygon fill="#000000" stroke="#000000" points="1215.9124,-129.5001 1225.9123,-126 1215.9123,-122.5001 1215.9124,-129.5001"/>
</g>
<!-- rndis_start_recv_thread_data &#45;&gt;cg_thread_setaction -->
<g id="edge23" class="edge">
<title>rndis_start_recv_thread_data &#45;&gt;cg_thread_setaction</title>
<path fill="none" stroke="#000000" d="M708.1974,-342C722.1078,-342 736.1084,-342 749.6021,-342"/>
<polygon fill="#000000" stroke="#000000" points="749.8122,-345.5001 759.8122,-342 749.8122,-338.5001 749.8122,-345.5001"/>
</g>
<!-- rndis_start_recv_thread_data &#45;&gt;cg_thread_setuserdata -->
<g id="edge36" class="edge">
<title>rndis_start_recv_thread_data &#45;&gt;cg_thread_setuserdata</title>
<path fill="none" stroke="#000000" d="M669.9471,-323.9437C695.4085,-318.8325 723.2712,-313.2392 749.2725,-308.0197"/>
<polygon fill="#000000" stroke="#000000" points="750.0222,-311.4391 759.1377,-306.0393 748.6444,-304.576 750.0222,-311.4391"/>
</g>
<!-- rndis_start_recv_thread_data &#45;&gt;cg_thread_start -->
<g id="edge37" class="edge">
<title>rndis_start_recv_thread_data &#45;&gt;cg_thread_start</title>
<path fill="none" stroke="#000000" d="M669.9471,-360.0563C701.6455,-366.4195 737.066,-373.53 767.9826,-379.7363"/>
<polygon fill="#000000" stroke="#000000" points="767.3586,-383.1808 777.8519,-381.7175 768.7363,-376.3177 767.3586,-383.1808"/>
</g>
<!-- rndis_do_tcp_recv_data  -->
<g id="node23" class="node">
<title>rndis_do_tcp_recv_data </title>
<polygon fill="#f5deb3" stroke="#000000" points="954,-252 744,-252 744,-216 954,-216 954,-252"/>
<text text-anchor="middle" x="849" y="-230.2" font-family="Times,serif" font-size="16.00" fill="#0000ff">rndis_do_tcp_recv_data </text>
</g>
<!-- rndis_start_recv_thread_data &#45;&gt;rndis_do_tcp_recv_data  -->
<g id="edge24" class="edge">
<title>rndis_start_recv_thread_data &#45;&gt;rndis_do_tcp_recv_data </title>
<path fill="none" stroke="#000000" d="M692.1548,-323.9456C697.694,-321.3408 703.017,-318.3751 708,-315 731.8819,-298.8243 720.478,-277.6948 744,-261 746.0817,-259.5225 748.2376,-258.1258 750.4539,-256.8054"/>
<polygon fill="#000000" stroke="#000000" points="752.1103,-259.8886 759.273,-252.0818 748.8053,-253.718 752.1103,-259.8886"/>
</g>
<!-- rndis_do_tcp_recv_data &#45;&gt;LOG_INFO -->
<g id="edge35" class="edge">
<title>rndis_do_tcp_recv_data &#45;&gt;LOG_INFO</title>
<path fill="none" stroke="#000000" d="M944.5572,-252.2608C947.9867,-254.8311 951.1621,-257.7308 954,-261 1048.977,-370.4138 895.6824,-475.0173 990,-585 999.7017,-596.313 1013.602,-603.1309 1027.9658,-607.1785"/>
<polygon fill="#000000" stroke="#000000" points="1027.3987,-610.6414 1037.9382,-609.5593 1029.0243,-603.8328 1027.3987,-610.6414"/>
</g>
<!-- rndis_do_tcp_recv_data &#45;&gt;cg_thread_getuserdata -->
<g id="edge25" class="edge">
<title>rndis_do_tcp_recv_data &#45;&gt;cg_thread_getuserdata</title>
<path fill="none" stroke="#000000" d="M943.8821,-252.1293C947.5435,-254.7281 950.9469,-257.6706 954,-261 1019.7773,-332.7311 924.6551,-404.8748 990,-477 990.7546,-477.8329 991.532,-478.6413 992.3306,-479.4257"/>
<polygon fill="#000000" stroke="#000000" points="990.126,-482.1446 1000.0479,-485.8604 994.6088,-476.7683 990.126,-482.1446"/>
</g>
<!-- rndis_do_tcp_recv_data &#45;&gt;prctl -->
<g id="edge26" class="edge">
<title>rndis_do_tcp_recv_data &#45;&gt;prctl</title>
<path fill="none" stroke="#000000" d="M943.1992,-252.0172C947.0938,-254.6394 950.7281,-257.6182 954,-261 1005.2855,-314.0076 939.0341,-369.6851 990,-423 1006.1249,-439.8681 1031.5969,-446.5729 1052.7968,-449.0838"/>
<polygon fill="#000000" stroke="#000000" points="1052.5222,-452.5732 1062.8012,-450.0056 1053.1645,-445.6027 1052.5222,-452.5732"/>
</g>
<!-- rndis_do_tcp_recv_data &#45;&gt;cg_thread_isrunnable -->
<g id="edge27" class="edge">
<title>rndis_do_tcp_recv_data &#45;&gt;cg_thread_isrunnable</title>
<path fill="none" stroke="#000000" d="M942.3028,-252.14C946.485,-254.7251 950.4205,-257.6629 954,-261 991.0082,-295.5021 953.1999,-334.2761 990,-369 991.1036,-370.0413 992.243,-371.0433 993.4148,-372.0075"/>
<polygon fill="#000000" stroke="#000000" points="991.4075,-374.8748 1001.5798,-377.8368 995.4748,-369.1777 991.4075,-374.8748"/>
</g>
<!-- rndis_do_tcp_recv_data &#45;&gt;usleep -->
<g id="edge29" class="edge">
<title>rndis_do_tcp_recv_data &#45;&gt;usleep</title>
<path fill="none" stroke="#000000" d="M872.6318,-215.8573C894.6722,-198.4588 927.9682,-170.9292 954,-144 971.8013,-125.585 968.5745,-113.0338 990,-99 1006.6273,-88.1091 1027.5384,-81.5894 1045.9345,-77.6966"/>
<polygon fill="#000000" stroke="#000000" points="1046.6916,-81.1153 1055.8526,-75.7931 1045.3722,-74.2408 1046.6916,-81.1153"/>
</g>
<!-- rndis_do_tcp_recv_data &#45;&gt;malloc -->
<g id="edge30" class="edge">
<title>rndis_do_tcp_recv_data &#45;&gt;malloc</title>
<path fill="none" stroke="#000000" d="M938.727,-252.0818C944.0963,-254.6677 949.2418,-257.6228 954,-261 977.522,-277.6948 966.5788,-298.1641 990,-315 1005.8931,-326.4244 1026.3486,-333.015 1044.614,-336.8169"/>
<polygon fill="#000000" stroke="#000000" points="1044.0217,-340.2667 1054.4932,-338.6552 1045.3023,-333.3848 1044.0217,-340.2667"/>
</g>
<!-- rndis_do_tcp_recv_data &#45;&gt;memset -->
<g id="edge31" class="edge">
<title>rndis_do_tcp_recv_data &#45;&gt;memset</title>
<path fill="none" stroke="#000000" d="M929.5846,-252.0563C966.2563,-260.2732 1008.4883,-269.736 1040.4125,-276.8891"/>
<polygon fill="#000000" stroke="#000000" points="1039.8718,-280.3547 1050.3952,-279.1259 1041.4024,-273.524 1039.8718,-280.3547"/>
</g>
<!-- rndis_do_tcp_recv_data &#45;&gt;tcp_data_accept -->
<g id="edge32" class="edge">
<title>rndis_do_tcp_recv_data &#45;&gt;tcp_data_accept</title>
<path fill="none" stroke="#000000" d="M954.005,-234C971.5473,-234 989.535,-234 1006.4477,-234"/>
<polygon fill="#000000" stroke="#000000" points="1006.8257,-237.5001 1016.8257,-234 1006.8256,-230.5001 1006.8257,-237.5001"/>
</g>
<!-- rndis_do_tcp_recv_data &#45;&gt;cmd_receive -->
<g id="edge33" class="edge">
<title>rndis_do_tcp_recv_data &#45;&gt;cmd_receive</title>
<path fill="none" stroke="#000000" d="M929.5846,-215.9437C959.5737,-209.2241 993.2814,-201.6714 1022.0294,-195.2299"/>
<polygon fill="#000000" stroke="#000000" points="1022.984,-198.6029 1031.9768,-193.001 1021.4535,-191.7723 1022.984,-198.6029"/>
</g>
<!-- rndis_do_tcp_recv_data &#45;&gt;rndis_tcp_stream_free  -->
<g id="edge34" class="edge">
<title>rndis_do_tcp_recv_data &#45;&gt;rndis_tcp_stream_free </title>
<path fill="none" stroke="#000000" d="M875.4913,-215.9988C903.0637,-197.9428 948.0059,-170.3883 990,-153 994.8092,-151.0087 999.8093,-149.1225 1004.8957,-147.3431"/>
<polygon fill="#000000" stroke="#000000" points="1006.3776,-150.5384 1014.7559,-144.0533 1004.1622,-143.8982 1006.3776,-150.5384"/>
</g>
<!-- uvc_get_socket_data -->
<g id="node24" class="node">
<title>uvc_get_socket_data</title>
<polygon fill="#f5deb3" stroke="#000000" points="1181,-36 999,-36 999,0 1181,0 1181,-36"/>
<text text-anchor="middle" x="1090" y="-14.2" font-family="Times,serif" font-size="16.00" fill="#0000ff">uvc_get_socket_data</text>
</g>
<!-- rndis_do_tcp_recv_data &#45;&gt;uvc_get_socket_data -->
<g id="edge28" class="edge">
<title>rndis_do_tcp_recv_data &#45;&gt;uvc_get_socket_data</title>
<path fill="none" stroke="#000000" d="M857.3862,-215.7326C875.7549,-177.8123 923.2926,-90.322 990,-45 992.18,-43.5188 994.4382,-42.1188 996.7585,-40.7954"/>
<polygon fill="#000000" stroke="#000000" points="998.6831,-43.7417 1005.9815,-36.0617 995.4867,-37.5141 998.6831,-43.7417"/>
</g>
</g>
</svg>
